<?xml version="1.0" encoding="UTF-8"?>
<svg id="Layer_2" data-name="Layer 2" xmlns="http://www.w3.org/2000/svg" viewBox="0 0 629.71 493.31">
  <defs>
    <style>
      .cls-1 {
        fill: #ccc;
        stroke: #fff;
      }

      .cls-1, .cls-2, .cls-3, .cls-4 {
        stroke-miterlimit: 10;
      }

      .cls-1, .cls-4 {
        stroke-width: 5px;
      }

      .cls-2 {
        fill: #999;
        stroke: #f2f2f2;
      }

      .cls-2, .cls-3 {
        stroke-width: 2px;
      }

      .cls-3 {
        fill: #fff;
        stroke: red;
      }

      .cls-4 {
        stroke: #e6e6e6;
      }
    </style>
  </defs>
  <g id="Layer_1-2" data-name="Layer 1">
    <path class="cls-2" d="M427.91,69.52c-.04-.5-.08-1.01-.12-1.51,.11-.31,.14-.84-.01-1.26-.03-.17-.06-.33-.09-.5-.2-3.21-.28-6.44-.38-9.67-.09-2.53-.1-5.07-.12-7.61-.01-.06-.02-.11-.03-.17-.1-1.16-.11-2.34-.16-3.5-.03-.89-.06-1.76-.09-2.63,0-.17-.01-.36-.02-.53h0c-.06-1.76-.12-3.51-.18-5.28-.03-.91-.03-1.84-.04-2.76,0-.5-.01-.99-.02-1.49-.05-.94-.1-1.88-.15-2.84-.03-.49-.05-.97-.08-1.47-.06-1.09-.11-2.18-.16-3.27-.06-1.39-.11-2.76-.13-4.14,0-.47,0-.93,0-1.39,0-1.4,.04-2.76,.13-4.13,.04-.63,.09-1.24,.15-1.86-.12-.26-.24-.53-.36-.79,0-.66,0-1.33,0-1.98,0-.43-.14-.83-.34-.83-.18,0-.29,.3-.33,.66-.09-.21-.23-.33-.43-.26-.01,0-.03,0-.04,.01-.05-.11-.1-.23-.15-.34-.11-.33-.3-.86-.32-1.36-.02-1.01-.62-1.03-.67-.09-.72-.57-1.5-.5-2.28-.43-.47,.04-.93,.09-1.37,0-1.88-.1-3.75-.06-5.61,.49-3.79,.61-7.61,.44-11.41,.99-5.33-.14-10.67-.2-16-.26-.76,0-1.51-.04-2.27-.09-2.38-.14-4.76-.27-7.06,1.31-1.23-.89-2.55-.89-3.86-.87-.54,0-1.08,0-1.61-.06-4.44-.19-8.86-.29-13.29,.51-1.47,.1-2.93,.01-4.4,.19-.16,.03-.33,.04-.52,.06,0-.97,.21-2.41-.26-2.76-.17-.04-.34,.23-.37,.61-.04,.79-.1,1.6-.16,2.4-.28,.19-.53,.51-.68,1.11-.16,.77,.08,1.67,.43,1.81,.02,0,.03,.01,.05,.01,.01,.2,.02,.39,.03,.59,0,0,0,.01,0,.01-.02,.61-.02,1.24,0,1.86-.48,6.75-.81,13.54-.87,20.39-.02,2.48-.07,5,.13,7.45,.03,.51,.12,1.09,.36,1.26,.01,.01,.02,.01,.03,.01,.03,3.71,.07,7.44,.11,11.12,.11,2.41-.04,4.9,.26,7.23,.05,.79,.07,1.64,.12,2.46-.04,.59-.1,1.17-.03,1.74,.05,.36,.2,.51,.33,.47,.01,.07,.04,.16,.06,.23,.57,1.54,1.16-1.67,.4-1.81-.02-.16-.03-.3-.04-.46,0-.07,.01-.16,.03-.23,1.3-8.42,3.52-15.94,5.8-23.15,.2-.54,.4-1.06,.6-1.58,2.22-5.14,4.32-10.7,7.29-13.61,.45-.63,.91-1.01,1.39-1.24,2.37,1.01,4.79,.49,7.22,.14,1.79-.07,3.57,.61,5.33,1.47,.14,6,.34,12.02,.32,18.05-.05,8.58-.55,17.21-.5,25.85-.14,4.83,0,9.64,.18,14.45,.25,8.38,.2,16.84,.23,25.25,.03,4.27-.04,8.48,.09,12.75,.06,1.36,.13,2.71,.2,4.08-.37,5.91-.52,11.92-.7,17.85-.04,5.65-.22,11.58,.48,17.04,0,.2-.01,.39-.01,.59-.4,6.65-.26,13.45-.42,20.16-.1,.77-.19,1.54-.28,2.3-.22,1.94-.43,3.88-.65,5.81-.28,1.33-.58,2.63-.88,3.94-.86,2.3-1.69,4.65-2.47,7.1-.38,.79-.77,1.57-1.13,2.38-.89,1.51-1.79,3.01-2.63,4.64-1.14,1.27-2.22,3.17-3.48,3.86-.17,.07-.3,.43-.3,.81s.13,.77,.3,.83c.51,.1,1.03,.1,1.54,.11,0,1.17,.2,1.83,.79,1.74,1.67,.2,3.34-.04,5.02-.23,1.38,.21,2.76,.3,4.15,.3h.18c.95,.26,1.9,.43,2.86,.29,1.62-.03,3.22-.56,4.83-1.04,1.3,.47,2.6,.97,3.91,1.27,.02,.16,.07,.33,.14,.5,.62,.49,1.41-.11,2.11-.07,1.9,.01,3.78-.43,5.65-.94,.57,.01,1.15,.06,1.72,.13,1.47,.23,2.86-.87,4.33-.9,.13-.03,.28,.06,.45,.16,.36,.19,.73,.39,.82-.54,0-.4-.08-.66-.2-.83,.28,0,.56-.03,.82-.1,.52,.73,1.06,1.4,1.61,1.91,.33,.46,.8,.17,.79-.81,0-.59-.29-1.06-.52-.7-.33-.31-.64-.66-.95-1.06,.11-.17,.18-.41,.18-.71,.5-.27,.15-2.43-.35-2.1-2.16-4.78-4.92-7.75-6.9-12.87-.42-1.17-.84-2.63-1.19-3.98-.06-.26-.18-.4-.3-.4-.11,0-.21,.11-.28,.36-.66-3.36-1.36-6.75-1.9-10.22-.35-5.58-.25-11.39-.36-17.05-.09-.86,.03-3.43-.2-4.6,0-.13,0-.26,0-.39-.04-6.11-.03-12.24-.02-18.36,.03-9.42,.21-18.86,.38-28.29-.07-1.83-.14-3.64-.21-5.47-.06-1.53-.1-3.06-.14-4.58-.04-1.33-.08-2.67-.1-4v.21c0-.47-.02-.94-.03-1.43-.01,.33-.03,.66-.04,.97-.12-5.05-.17-10.11-.29-15.16-.05-2.26-.14-4.5-.11-6.75h.03c.08,0,.14-.06,.2-.16,.03,2.28,.09,4.57,.15,6.88,0-.5,.01-.99,.02-1.49,0-.61,.03-1.21,.05-1.83,.04-1.17,.08-2.36,.11-3.54,.06-1.63,.15-3.26,.28-4.85-.18-8.74-.37-17.46-.3-26.2,.04-4.78,.28-9.58,.47-14.36,0-1.23,.23-4.27,.31-7.01,1.15,.13,2.28,.69,3.43,.83,1.25,.01,2.49-.03,3.74-.09,2.3-.09,4.61-.19,6.91,.13,.25,.43,.5,.83,.75,1.19,2.25,3.27,3.76,8.72,6.05,11.84,.05,.04,.1,.07,.14,.07,.14,0,.24-.17,.3-.41,.71,2.33,1.35,4.77,1.93,7.27,.53,2.38,.92,4.9,1.31,7.41,.16,.8,.29,3,.86,2.18,.48,2.78,1.16,5.33,1.82,7.88,0,.36,.09,.81,.26,.97,.02,.1,.04,.2,.07,.3,.06,.97,.13,1.94,.21,2.91,.04,.41,.17,.59,.31,.59,.21,0,.42-.43,.35-1.03Zm-2.36-46.44c.04,1.24,.08,2.48,.12,3.73-.05,.01-.1,.04-.14,.11,0-1.29,.01-2.56,.03-3.84Zm-5.47,11.74c-.14-.19-.34-.13-.43,.2-.65-1.74-1.33-3.44-2.05-5.04,.89,1.44,1.76,2.97,2.48,4.84Zm6.03-19.78s-.04,.01-.06,.04c0-.07,0-.13,0-.2,.02,.04,.04,.1,.06,.16Zm-42.2,200.87c-.79,0-1.57,.01-2.36,.03h-.01c-.2-.06-.39-.1-.58-.16,.96,0,1.91,.01,2.87,.04,.03,.03,.06,.06,.08,.09Zm-.16-91.87c0-.06,0-.1,0-.16t0,0v.16Zm-.12-8.72h0s0-.01,0,0h0Zm-1.04-14.14c.01,.2,.06,.4,.13,.53-.08,6.87-.14,13.72-.14,20.59-.07-7.57-.04-15.14-.08-22.72,.03,.53,.06,1.07,.09,1.6Zm-.31,74.51c0-2.38,.06-4.78,.14-7.17,.01,1.47,0,2.96-.06,4.44-.05,2.5-.07,5-.07,7.5-.03,.04-.06,.09-.08,.14,.01-1.64,.03-3.28,.08-4.91Zm15.72-62.23v-.97c0-.39,0-.76,0-1.14,0,.13,.01,.26,.02,.39,.01,.09,.03,.16,.04,.23-.03,.5-.05,1-.07,1.5Zm-15.88-41.1c-.01-3.17,.04-6.33,.12-9.47,.08,5,.16,10.01,.12,15.01-.01,2.84-.05,5.7-.06,8.55-.14-4.7-.31-9.38-.18-14.09Zm.11,69.88c.08-1.96,.15-3.94,.23-5.93,.04,1.7,.04,3.41,.01,5.13,.08,5.28-.29,10.54-.22,15.82-.02,.27-.04,.54-.06,.81-.26-5.23-.08-10.6,.04-15.84Zm-10.29,71.7c-.02,.07-.04,.14-.05,.2h-.12c.06-.06,.11-.13,.17-.2Zm13.97,2.17c-.32,.07-.64,.11-.96,.14,0-.16-.01-.29-.03-.41,.3,.01,.59,.01,.89,.01,.22,.03,.43,.07,.65,.13-.18,.06-.36,.09-.55,.13Zm6.32,.06c.72-.1,1.45-.13,2.18-.03-.13,.04-.29,.13-.46,.27-.38,.03-.76,.01-1.13,0-.2-.09-.39-.17-.59-.24Zm13.91-2.28h0s.06-.01,.08-.01c.3-.09,.38-1.01,.19-1.47-.4-.67-.86-1.17-1.3-1.73-.04-.71-.33-1.44-.52-2.08,.23,.31,.45,.64,.68,.99,.46,.87,1.01,1.84,1.4,2.17,.09,.14,.19,.3,.28,.46,.36,.59,.72,1.2,1.09,1.78-.64,.04-1.28-.06-1.91-.1Zm1.46-4.06c-.47-.56-.95-1.07-1.39-1.73-.43-.87-.9-1.7-1.29-2.67,.89,1.49,1.86,2.7,2.68,4.4Zm11.01-173.66s0-.01,0-.01c0,0,0-.01,0-.01-1.11-2.74-2.32-5.31-3.64-7.54,.34,.07,.68,.16,1.01,.24,1.62,3.08,3.06,6.64,4.31,10.51-.75-1.24-1.2-2.18-1.67-3.18Z"/>
    <path class="cls-2" d="M234.77,256.43c-.03-.07-.06-.1-.09-.15-.33-.51-.67-1-.98-1.54-.09-.15-.17-.31-.26-.46-.33-.59-.68-1.19-1.01-1.78-.61-1.07-1.21-2.14-1.82-3.21-.27-.47-.54-.92-.8-1.39-1.01-1.88-2.02-3.78-3.03-5.65-.02-.03-.04-.05-.05-.08-.31-.39-.59-.85-.83-1.34,.06,.05,.13,.08,.19,.12-.43-.81-.84-1.63-1.26-2.46-.05-.08-.08-.17-.13-.25-.05-.1-.09-.19-.14-.29-.26-.54-.52-1.09-.78-1.63-.04-.08-.07-.15-.11-.24-.27-.58-.53-1.17-.8-1.78-.3-.32-.61-.7-.95-.46-.08,.05-.14,.14-.18,.24-.56-1.7-1.09-3.44-1.57-5.21,.13-.92-.49-2.12-.69-2.93-.09-.27-.18-.53-.28-.78-.24-.95-.45-1.92-.67-2.88-.12-.32-.33-.54-.52-.47-.1-.27-.19-.54-.28-.83-.12-.34-.23-.7-.33-1.03,.13-.25,.19-.59,.14-.95-.66-3.29-1.49-6.46-2.22-9.68-2.5-9.82-4.7-19.86-7.16-29.71,0-.02,0-.03,0-.05-.52-2.95-.92-5.99-1.5-8.9-.71-3.29-1.59-6.43-2.24-9.74,.07,.02,.14,0,.19-.03-.54-2.31-1.07-4.63-1.58-6.97-.57-2.51-1.08-5.07-1.58-7.63,0-.02,0-.02,0-.03-.12-.59-.24-1.15-.34-1.73t0-.03s-.02-.08-.03-.12t0-.03h0v-.02s0-.02,0-.02c-.47-2.48-.94-4.97-1.4-7.45-.25-.17-.48-.53-.6-1-.25-.98-.45-2.02-.68-3.02-.24-1.1-.5-2.19-.74-3.27-.44-1.9-.93-3.78-1.4-5.66-.52-2.07-.94-4.22-1.38-6.36-.37-1.78-.73-3.58-1.1-5.36-.31-1.54-.62-3.05-.92-4.6t0-.03c-.11-.53-.21-1.05-.32-1.58-.29-.85-.77-1.42-1.14-.39-.83-4.9-1.51-9.89-2.14-14.91-.21-.86-.41-1.75-.6-2.65-.23-1.05-.45-2.12-.68-3.19-.2-.95-.39-1.9-.58-2.87-.24-1.2-.48-2.41-.71-3.61-.08-.44-.16-.88-.24-1.32-.08-.47-.15-.95-.24-1.42-.36-2.1-.72-4.21-1.08-6.31-.26-1.58-.52-3.15-.79-4.73-.1-.56-.19-1.14-.28-1.7-.03-.15-.05-.32-.08-.47,0-.08-.03-.19-.04-.27-.25-1.56-.51-3.12-.76-4.68-.28-1.75-.56-3.51-.83-5.26-.12-.71-.23-1.41-.33-2.12-.14-.93-.28-1.88-.42-2.83,0-.03,0-.07,0-.1,0-.03,0-.05-.02-.08-.13-.92-.25-1.87-.38-2.78-.14-.98-.24-1.98-.36-2.98-.02-.17-.04-.32-.05-.49-.04-.27-.06-.54-.1-.8-.14-1.17-.27-2.36-.29-3.54,0-.19,0-.37,.02-.54-.35-2.76-.63-5.58-.73-8.41,0-.02,0-.02,0-.02,.29-3.49,.79-6.94,1.46-10.31,.68-2.39,.9-5.78,2.37-6.92h.05c.18,.58,.61,.71,.83,.14,.08-.2,.1-.44,.11-.68-.84-.08-1.66-.22-2.5-.32-.08-.02-.17-.02-.25-.03-.08,0-.17-.02-.25-.03h-.05c-.24-.03-.48-.05-.72-.08-.08,0-.17-.02-.25-.02-.42-.05-.83-.08-1.25-.14-.11-.02-.23-.03-.33-.03-.37-.03-.74-.08-1.1-.1-.08-.02-.16-.02-.24-.02-.15-.02-.31-.03-.46-.03v.02c-.06-.02-.13-.02-.2,0v-.02h-.21c-1.05,.02-2.09,.05-3.12,.1-.24,.02-.48,.03-.72,.05-.48,.05-.96,.14-1.44,.22-.24,.05-.48,.1-.71,.15v.02h-.05s-.02,0-.04,.02h0c-.61,.15-1.2,.32-1.82,.36-.48,.03-.96,.03-1.45,.02-.19,0-.39,0-.58-.02-1.24-.07-2.47-.25-3.71-.27-.67,0-1.34,.07-2.02,.2-.16,.24-.37,.39-.59,.42h-.2c-.12,0-.24-.02-.36-.07-.32-.17-.58-.51-.71-1.07-.03-.08-.05-.17-.05-.25-.06-.02-.13-.03-.19-.05-1.09,.19-2.21-.19-3.31-.54-1.74-.58-3.45-1.15-5.04,.42-.22,.44-.27,.81-.22,1.12,.04,.08,.07,.19,.11,.29,.03,.07,.05,.14,.08,.22,.29,.46,.81,.75,1.13,1.02,.29,.41,.56,.83,.84,1.27-.24,.03-.48,.08-.71,.14-.14-.17-.31-.29-.47-.36,.04,.08,.06,.17,.1,.25,.02,.05,.05,.12,.06,.17,.05,.12,.08,.22,.13,.34,.11,.29,.22,.58,.32,.86,.18,.53,.36,1.07,.53,1.59,0,.03,.02,.05,.03,.08,.05,.14,.09,.27,.14,.42,0,.03,.03,.08,.04,.14,.09,.25,.17,.51,.24,.78,.15,.49,.3,.98,.44,1.49,0,.03,.02,.05,.03,.08,0,.03,.03,.08,.04,.12,.08,.31,.17,.59,.26,.9,.16,.36,.32,.71,.46,1.09,.42,1.19,.8,2.37,1.21,3.53,.02,.05,.04,.12,.05,.17,.66,3.04,.68,6.33,.89,9.58v.02c-.04,.53-.08,1.07-.14,1.61-.17,2.39-.43,4.77-.71,7.12-.46,2.66-.93,5.29-1.32,7.99-1.34,6.29-2.58,12.62-3.34,19.25-1.4,5.04-2.04,10.52-3.06,15.81-2.92,11.82-4.56,24.63-7.81,36.19-1.37,6.75-1.56,14.09-3.23,20.71-1.12-1.15-1.37,6.07-1.76,7.46-.93,5.39-1.69,10.84-2.42,16.32-.61,2.73-1.52,5.31-2.12,8.06-.33,1.41-.9,3.34-.25,4.68-.61,2.73-1.25,5.43-1.98,8.02-1.59,6.83-2.28,14.31-4.1,20.98-1.09,4.99-1.51,10.4-2.88,15.2-.28,1.61-1.27,5.04-1.82,8.09-.51,1.09-1.03,2.15-1.57,3.19,.08,.15,.15,.32,.21,.53,0,.02,.02,.03,.02,.05,.02,.07,.04,.15,.05,.24,.06,.31,.08,.64,.04,.98-.04,.37-.08,.7-.16,1.05,0,.03-.02,.08-.03,.12-.05,.2-.13,.39-.21,.56-.13,.41-.25,.8-.44,1.12-.15,.27-.31,.53-.47,.76-.22,.32-.43,.68-.65,.98-.47,.64-.94,1.29-1.43,1.88-.46,.54-.91,1.1-1.38,1.59-.34,.37-.7,.73-1.03,1.1-.17,.19-.34,.37-.52,.54-.38,.36-.76,.7-1.14,1.05-.7,.9-1.39,1.81-2.07,2.76-.96,1.37-1.93,2.75-2.88,4.12-.12,.17-.23,.34-.34,.51-.24,.34-.47,.68-.71,1-.25,.34-.5,.7-.75,1.03,.3,0,.6-.02,.89-.03,.1,.24,.23,.32,.36,.32,.18,0,.37-.17,.56-.39,.13-.02,.26-.02,.39-.03,1.25-.12,2.5-.24,3.76-.05,2.47,.68,5,.56,7.52,.44,1.21-.07,2.43-.12,3.64-.08,8.48-.12,16.94,.42,25.41,1.2h.03c-.37-.22-.73-.47-1.09-.73-.52-.39-1.02-.88-1.48-1.46-.49-.05-.97-.1-1.46-.14l.03-1.19c.13,0,.25-.07,.36-.24-.61-1.03-1.16-2.2-1.65-3.46-.54-1.39-1.03-2.87-1.48-4.38-.14-.46-.27-.9-.4-1.36-.06-.22-.12-.46-.18-.68-.05-.2-.11-.41-.16-.63-.1-.37-.2-.75-.28-1.14,0-.03-.02-.07-.03-.1-.09-.39-.18-.8-.26-1.2-.1-.44-.19-.9-.27-1.36-.03-.15-.05-.29-.07-.44-.04-.14-.05-.29-.07-.42-.03-.12-.05-.24-.06-.36,0-.05-.02-.12-.02-.17-.05-.29-.09-.59-.12-.88-.05-.42-.09-.83-.13-1.26-.08-1.12-.15-2.37,0-3.51,.03-.24,.06-.46,.12-.68,0-.05,.02-.12,.04-.17,.04-.17,.09-.32,.14-.47,0-.02,0-.03,.02-.05,.05-.1,.08-.19,.14-.27,.02-.05,.05-.1,.07-.14,.05-.08,.11-.15,.16-.22,.15-1.53,.58-3.17,1.45-3.46,0-.02,.02-.02,.03-.02,.79-5.75,1.35-11.63,1.82-17.5,1.26-8.16,2.32-16.43,3.25-24.76,.26-2.19,1.04-4.44,.99-6.7,.16-.83,.33-1.65,.5-2.48,0-.07,.03-.14,.05-.2,.46-1.92,1.12-4.68,1.6-7.17,.84-2.93,2.19-7.12,3.01-10.41,.95-.19,1.89-.46,2.83-.83,4.11-.12,8.25-.12,12.37-.12,1.17,.02,2.34,0,3.51,0,.61,0,1.23-.02,1.84-.02,.1-.63,.2-1.27,.36-1.87,.02-.03,.03-.07,.04-.1-2.11-.03-4.22-.02-6.34,0-2,.03-4.01,.03-6,.02,2.95-.8,5.93-.7,8.92-.59,1.22,.03,2.45,.08,3.67,.07,.05-.07,.09-.12,.14-.17l.99,.05s.05,.05,.06,.07h0c2.14,.08,4.27,.56,6.39,.98,0,0,.02,.02,.03,.02,.86,5.24,2.07,10.23,3.53,14.98,.09,.29,.26,.47,.43,.47,.09,0,.17-.05,.24-.14v-.02c.05,.19,.11,.39,.16,.59,1.84,10.38,3.62,20.81,5.74,31,.84,5.5,1.72,10.97,2.66,16.42-.1,.31-.11,.71,0,1.02,.61,5.38,1.04,11.01,1.08,16.54,.27,0,.54,.2,.74,.58,.08,.15,.14,.34,.19,.53,.04,.14,.06,.27,.08,.41v.03c.02,.14,.03,.29,.03,.42,0,.17,0,.34-.04,.51-.04,.32-.13,.63-.26,.86-.26,.46-.53,.9-.8,1.32,0,.29-.02,.56-.09,.81-.05,.2-.12,.41-.19,.61-.09,.25-.19,.51-.28,.75-.02,.03-.04,.08-.05,.12-.06,.17-.14,.32-.2,.47-.18,.44-.37,.88-.56,1.32-.32,.73-.63,1.48-.96,2.2-.1,.22-.19,.42-.29,.64-.26,.59-.54,1.19-.82,1.78-.08,.25-.16,.51-.24,.76-.16,.51-.36,1-.54,1.49-.14,.41-.31,.78-.47,1.14-.2,.42-.39,.81-.64,1.09-.03,.03-.06,.07-.1,.1-.18,.17-.37,.25-.56,.25-.13,0-.24-.05-.35-.14-.02-.02-.05-.03-.06-.05l-.02,.03c-.16,.24-.34,.51-.54,.75,0,0,0,.02,0,.02-.11,.14-.22,.27-.33,.39,.04,.08,.08,.19,.13,.27-.3,1.05-.27,1.95,.83,2.05,3.62-.02,7.23-.51,10.83-.8,4.52,.39,9.05,1.03,13.57,1.56,.19-.17,.41-.27,.61-.36,.43-.15,.87-.25,1.3-.37,.18-.03,.36-.08,.54-.14,.68-.19,1.37-.37,2.05-.42,.15-.02,.3-.02,.45-.02,.21,0,.41,.02,.61,.03,.21,.02,.42,.05,.61,.08h.04c.19,.03,.39,.07,.58,.1-.03-.05-.06-.1-.11-.14,2.7-.15,5.43-.19,8.12-.44,1.15,.54,2.34,1.07,3.54,.78,.79-.22,1.46-.7,2.29-.78,.27-.03,.53-.39,.55-.93,.04-.02,.08-.03,.12-.03,.44,.53,.89,1.05,1.32,1.59,.19,.39,.4,.54,.59,.54,.33,0,.59-.49,.55-1.09-.18-.25-.35-.54-.53-.81ZM158.11,120.26c0-.22-.04-.42-.1-.61-.13-.32-.35-.44-.55-.32-.15-.1-.33-.24-.49-.39,1.99-11.47,4.2-22.79,6.42-34.09,1.23-6,2.41-12.02,3.41-18.16,.86,16.26,3.55,32.04,6.19,47.56,.24,1.26,.48,2.53,.71,3.8-2.03,.1-4.04,.7-6.05,1.27-3.16,.92-6.32,1.83-9.55,.95Zm-1.75,2.27c.05-.29,.09-.58,.14-.86,.47,.25,.97,.36,1.41,.53-.45,.15-1.13-.12-1.56,.34Zm13.41,.05c-1.73,.19-3.04,.36-3.26,.36,2.6-.71,5.2-1.32,7.81-1.68,.06,.34,.13,.66,.19,1-1.61,.03-3.32,.19-4.74,.32Zm11.75-69.04c-.08-.14-.16-.25-.25-.36-.45-2.49-.86-5-1.3-7.5-.02-.29-.04-.59-.05-.9,.02,.05,.04,.12,.05,.17,.48,2.88,1.02,5.73,1.56,8.58Zm17.16,83.24c.4,2.15,.8,4.31,1.21,6.46-.17-.44-.4-.68-.71-.24-1.39-8.85-3.19-17.45-4.79-26.19,1.28,6.77,2.79,13.36,4.29,19.96Zm-11.95-56.93c.81,6.73,1.74,13.42,2.75,20.05-.03-.15-.05-.29-.08-.44,0-.05-.02-.1-.02-.15-1.45-9.43-2.85-18.84-4.36-28.22-.2-1.19-.4-2.37-.6-3.58h.02s.05,0,.08-.02c.38,2.27,.72,4.55,1.04,6.85,.33,1.88,.74,3.7,1.17,5.51Zm-47.44,137.97c.5-4.82,1.11-9.84,1.86-14.6-.44,4.95-1.09,9.8-1.86,14.6Zm8.92-55.32c-.06-.03-.13-.03-.21,0,.04-.34,.07-.7,.07-1.03,0-.02,0-.05,0-.07v-.07c.15-.9,.3-1.8,.44-2.7,0-.03,.02-.08,.02-.14h0c.27-.03,.54-.05,.81-.1-.4,1.36-.79,2.71-1.16,4.1Zm3.26-7.02c.13-.8,.17-1.44,.1-1.87,1.79,.12,3.58,.2,5.36,.56-1.8,.83-3.63,1.17-5.46,1.31Z"/>
    <path class="cls-3" d="M139.35,205.52c0-.05,.02-.12,.03-.17,0,.05,0,.12-.02,.17h0Z"/>
    <path class="cls-2" d="M179.15,40.45v0s0,0,0,0Z"/>
    <path class="cls-3" d="M181.07,155.89c.02,.12,.05,.25,.06,.37-.03-.12-.05-.24-.07-.37h0Z"/>
    <path class="cls-3" d="M188.67,188.03v.08c0-.1-.03-.2-.04-.31,.02,.07,.03,.15,.04,.22Z"/>
    <path class="cls-3" d="M222.65,236.3c0,.05,0,.08,0,.1-.05-.03-.12-.1-.17-.15-.03-.07-.05-.14-.06-.2,.07,.08,.15,.17,.24,.25Z"/>
    <path class="cls-3" d="M201.56,151.84s0,.02,0,.02c-.07-.41-.14-.8-.23-1.2,.08,.39,.16,.8,.24,1.19Z"/>
    <path class="cls-3" d="M212.8,256.86s.06-.02,.09-.02h.03c0,.07-.02,.12-.02,.19-.04-.02-.07-.02-.11-.02,0-.05,0-.1,0-.15Z"/>
    <path class="cls-3" d="M177.7,155.49c-1.36-.12-2.71-.19-4.07-.24,.21,.56,.29,1.27,.34,1.97,1.52,.05,3.05,.15,4.57,.37,.1,.02,.22,.05,.34,.05,.3,0,.61-.17,.63-.83,0-1.73-1.17-1.03-1.82-1.32Z"/>
    <path class="cls-2" d="M285.82,7.76c-.09,.03-.19,.04-.29,.07-.01,.09-.02,.17-.03,.26-.02,.17-.03,.35-.05,.54,.11-.19,.21-.38,.32-.55,.02-.03,.03-.06,.05-.09,0-.07,0-.16-.01-.23Z"/>
    <path class="cls-2" d="M272.14,9.05c-1.35,.1-2.68-.25-4.02-.6-1.41-.36-2.81-.73-4.23-.58-.98,0-1.81,1.38-2.78,1.6-.12,.06-.24,.1-.36,.13,.03,.07,.07,.16,.1,.25,.16,.39,.31,.81,.47,1.22,.03-.01,.07-.03,.1-.06,0,.03,.02,.03,.02,.04,.03,.07,.06,.16,.09,.25-.1,.01-.2,.04-.3,.09-.26,.33-.23,1.05-.08,1.42-.08-.1-.16-.17-.24-.25,.36,1.05,.71,2.08,1.07,3.12,.04,.12,.08,.23,.12,.36,1.72,3.02,3.49,8.44,4.82,12.43,.03,.15,.07,.28,.1,.42,.19,.84,.35,1.71,.49,2.63,.09,2.27,.24,4.14,.52,4.52,.18,1.97,.29,4.01,.42,6,.03,.36,.12,.55,.21,.61,.11,1.7,.21,3.4,.31,5.1,.03,.6,.05,1.25,.22,1.71,.02,.07,.04,.13,.07,.17,.19,7.23,.37,14.46,.52,21.71-.18,13.74-.24,27.47,.12,41.2-.19-.26-.42,.23-.41,.77-.05,9.13,.06,18.25,.25,27.37-.11,8.34,.21,16.8-.3,25.05-.25,2.41-.82,4.62-1.04,7.09-.29,2.72-.33,5.69-.89,8.15-1.65,5.01-3.94,8.95-5.81,13.56-1.35,2.16-2.94,3.21-4.38,4.91-1.22,1.7-2.57,2.66-3.93,3.18-.62-1.29-1.61-.78-2.33-.26-.23,.06-.49,.38-.44,1.1-1.94,.9-3.92,.1-5.8-1.35,.03-.65-.19-.93-.4-1.05-.31-.28-.64-1.09-.97-.64-.04,.1-.08,.2-.1,.3-.11-.07-.21-.16-.32-.25,.1,.1,.21,.19,.32,.26-.15,.55-.11,1.05,.06,1.48-.74-.48-1.46-1.21-2.17-1.89-1.43-1.58-3.05-2.25-4.26-4.97-1.48-4.05-2.31-9.54-3.8-13.66-1.53-5.63-1.93-12.95-2.21-19.69-1.1-20.48-1.03-41.14-1.06-61.77,.59,.06,.3-2.11,.37-3.14,0-3.72,0-7.44,0-11.15-.01-15.76-.07-31.54,.01-47.31,.03-2.19,0-4.4,.07-6.58,0-.36,.02-.87,.04-1.44,.38-1.73,.8-3.43,1.25-5.08,.42-.46,.87-.74,1.32-1,.12-.38,.25-.74,.37-1.12h0c.12-.38,.25-.74,.37-1.12,.02-.03,.02-.06,.03-.09,.12-.35,.23-.71,.35-1.06-.27,.2-.55,.41-.83,.6-.12,.12-.33,.22-.57,.32,.62-1.93,1.31-3.73,2.05-5.3,.7-1.13,1.44-2.02,2.23-2.56,.26-.17,.27-1.06,.12-1.45,.16-.22,.33-.42,.49-.61,.14-.15,.2-.49,.18-.83,.22-.52,.44-1.05,.66-1.57-4.68-.68-9.36-.48-14.05-.28-3.96,.16-7.91,.33-11.86-.03-2.08-.8-4.17-.64-6.27-1.07-.14,0-.31-.01-.51-.04,.1,.3,.21,.61,.31,.9,.12,.28,.24,.57,.37,.84,.12,.01,.23,.03,.35,.04-.14,.42-.1,1.29,.1,1.66,.71,.73,1.2,2.41,1.64,3.99,.69,2.37,1.44,4.6,2.31,6.52,.1,.25,.26,.25,.37,.03,.82,2.32,1.83,4.2,2.49,6.9,.09,.35,.27,.45,.41,.2,.38,2.22,.64,4.56,.76,7,.05,7.65,.04,15.29-.01,22.94-.21,.22-.24,.9-.23,1.42,.03,6.3,.25,12.58,.41,18.86-.01,8.83-.19,17.83,.23,26.55-.05,6.84-.03,13.69-.03,20.53-.2-.13-.36,.32-.37,.83-.02,1.77-.08,3.51-.11,5.3-.1,9.67-.12,19.4,.5,28.96-.29,2.41,.12,4.97,.3,7.35-.29,1.03,.07,2.37,.17,3.44,.3,2.47,.65,4.88,1.03,7.23,0,.01,0,.03,0,.03,.02,.12,.04,.23,.05,.35,.75,4.52,1.63,8.86,2.62,13.01,.01,.03,.01,.04,.02,.07,.02,.12,.05,.22,.08,.33,.01,.04,.02,.09,.03,.13,.02,.09,.04,.16,.05,.23,.36,1.48,.74,2.95,1.13,4.39,.6,2.18,1.45,3.73,2.11,5.79,.34,.7,.85,2.69,1.31,1.83,.1-.28,.1-.7,.05-1.05,1.25,2.45,7.31,16.29,8.48,12.39,2.2,2.41,4.55,4.25,6.95,4.01,.49-.07,.97,.22,1.46,.52,.43,.26,.87,.52,1.32,.52,.08,0,.16-.01,.25-.03,.54-.01,1.09-.01,1.63-.01,1.77,.01,3.54,.01,5.29-.45-.01,.55-.03,1.22,.19,1.5,.08,.04,.16,.06,.24,.06,.58,0,1.16-.81,1.72-1.12,.96-.76,1.98-.86,2.92-1.87,1.57-1.58,3.16-2.9,4.73-4.49,.1-.15,.21-.29,.32-.42,.32-.6,.65-1.13,.98-1.64,.83-1.25,1.72-2.31,2.62-3.12,.03-.03,.07-.06,.1-.09,0-.15,0-.29-.02-.42l.66-.15c.16-.15,.33-.29,.49-.44,.22-.19,.45-.38,.68-.57,.35-1.06,.69-2.15,1.04-3.25,1.31-3.96,2.63-8,3.63-12.63,.12-.01,.2-.17,.25-.39l.1,.16c-.79,3.56-1.57,7.14-2.66,10.18-.25,.16-.31,1.12-.11,1.52,.07,.09,.13,.13,.19,.13,.35,0,.59-1.37,.83-2.02,1.22-3.59,1.97-7.97,2.93-12.02,1.75-5.53,2.75-12.1,3.39-19.04,1.11-6.43,1.47-13.37,1.48-20.4,.25-5.65,.25-11.37,.23-17.06-.3-13.75,.14-27.65-.71-41.26,0-13.05,.19-26.17,.15-39.25,.12-5.42-.06-10.83,.16-16.25,.03-.96,.02-1.92,0-2.88,.08-.04,.16-.19,.2-.38,.26-2,.44-4.1,.67-6.14,.1-.99,.19-1.97,.28-2.96,.15-.39,.32-.74,.48-1.1,.02-.06,.05-.12,.08-.19-.17,.2-.34,.41-.5,.61,.05-.55,.1-1.12,.15-1.67,.03-.41-.07-.86-.22-.96,.37-2.53,.83-5.34,1.71-6.98,.15-.36,.43-.62,.7-.93,0-.16,.01-.32,.02-.46,.02-.54,.03-1.07,.05-1.6-.69,.76-1.25,1.82-1.7,3.14,.36-1.35,.73-2.76,.7-4.39-.01-.09-.02-.16-.04-.22,.12-.04,.24-.09,.35-.15,.25,0,.49,0,.74-.01,.02-.58,.04-1.16,.06-1.76-.44,.04-.87,.12-1.31,.23-2.09,.93-4.25,.35-6.36,.29Zm4.51,12.33c-.04,.3-.1,.87-.19,1.61-.04-.04-.08-.04-.12-.01,.13-.84,.27-1.68,.43-2.51-.04,.3-.08,.61-.12,.91Zm-15.26-8.32c.05,0,.12-.06,.18-.17,.19-.04,.37-.07,.55-.09,.58,1.5,1.14,3.06,1.69,4.69-.73-1.8-1.52-3.38-2.42-4.43Zm-53.06-.45c-.3-.96-.67-1.83-1.09-2.43,.29,.04,.57,.09,.85,.13-.05,.49,.04,1.12,.27,1.12,.04,.04,.09,.07,.13,.15,1.24,2.35,2.17,5.72,3.21,8.65,.26,.74,.52,1.52,.76,2.32-.29-.46-.58-.91-.87-1.35-.1-.28-.19-.51-.24-.7-1-2.66-1.99-5.34-3.02-7.9Zm6.37,16.39c.03,.07,.05,.13,.08,.17,.01,.22,.01,.42,0,.58-.05-.33-.1-.65-.16-.97,.03,.07,.06,.15,.09,.22Zm35.46,192.71c0-.07,0-.13,0-.2,.03-.09,.05-.19,.06-.32,.87-.29,1.7-.87,2.55-1.31,.16-.15,.42-.16,.63-.3-1.08,.74-2.18,1.35-3.25,2.13ZM277.3,10.84c.26-.06,.52-.12,.79-.19-.2,.35-.49,.3-.79,.19Z"/>
    <path class="cls-3" d="M258.01,217.97c0,.38,.09,.71,.23,.81,.24-.71,.51-1.34,.79-1.93-.25,.09-.49,.16-.73,.26-.17,.01-.29,.42-.29,.86Z"/>
    <path class="cls-3" d="M245.93,202.33s-.02,.01-.02,.03c.03,.01,.07,.03,.1,.04-.03-.03-.05-.06-.08-.07Z"/>
    <path class="cls-3" d="M232.65,175.28c-.05-.2-.09-.42-.13-.64,0-.04-.02-.1-.02-.16-.23,1,.49,3.18,.82,4.5-.04-.28-.09-.55-.13-.83-.03-.23-.07-.45-.1-.67-.15-.74-.29-1.47-.43-2.21Z"/>
    <path class="cls-2" d="M476.86,23.22s0-.03,0-.03c0,.02,0,.03,0,.05,0,0,0-.02,.01-.02Z"/>
    <path class="cls-2" d="M485.15,249.51c-.45-.44-.92-.79-1.38-1.13-1.29-1.86-2.42-4.39-3.87-5.54-2.52-2.84-4.74-7.35-6.64-12.29-.88-1.94-1.78-3.92-2.44-6.32-.05-.44-.1-.88-.15-1.32,.4-2.09-.02-4.73-.1-6.94-.28-6.69-.32-13.49-.58-20.15,.01-5.88,.16-11.72,.25-17.6-.05-1.18,.36-5.52-.6-4.1-.02-1.66,0-3.29,.04-4.93,.07,.22,.17,.35,.29,.35,.21,0,.38-.47,.37-.98-.02-1.59-.08-3.16-.14-4.75-.26-5.74-.17-11.52-.25-17.29-.16-11.05-.1-22.12-.01-33.17,.04-3.8,.09-7.62,.05-11.42,0-.57-.22-1.11-.46-.95,.03-10.59,.27-21.2,.14-31.78,.13-.2,.2-.59,.18-.98-.04-1.32-.1-2.62-.15-3.92-.01-.71-.03-1.44-.05-2.16,.18-8.19,.43-16.36,.72-24.52,1.19-2.16,1.81-5.79,2.61-9,.13-.1,.24-.34,.33-.57,.93-2.6,2.2-4.09,3.44-5.61,0-.2,0-.39,.01-.59,.05-.52,.18-.88,.34-1.25,.15-.37,.31-.74,.47-1.1,.1-.24,.2-.46,.31-.69,.01-.03,.03-.05,.04-.07,.17-.35,.34-.69,.52-1.03,.03-.07,.07-.14,.1-.2,.31-.61,.66-1.13,1-1.66,.14-.24,.3-.47,.45-.69,.1-.14,.19-.27,.29-.37,.03-.02,.05-.05,.08-.07,.04-.03,.08-.07,.13-.08h0s.05-.02,.08-.02c0,0,0-.02,0-.02,.15-.02,.3,.08,.44,.27,.15,.22,.27,.54,.35,.93,.47-.95,.95-1.84,1.46-2.69,.63-.98,1.45-1.05,2.05-2.13,.13-.32,.13-.78,.13-1.2,0-1.2-.69-1.32-.74-.12-.03,.03-.08,.07-.11,.12-.05,.03-.1,.08-.15,.12-.01-.47-.16-.95-.37-.91-.49,.12-.97-.37-1.46-.52-.96-.39-1.92,.49-2.88,.27-1.25-.27-2.53-1.08-3.8-1.06-2.7-.9-5.43,.17-8.15-.05-1.63,.15-3.24,1.27-4.87,.9-4.06-.46-8.12,.64-12.18-.39-2.76,.78-5.47-1.42-8.25-1-.36,.08-.86-.1-1.07,.79-.16,.81,.04,1.33,.3,1.47,0,0,0,.02,0,.03-.09-.03-.17-.07-.26-.1t-.01-.02c-.27-.39-.49-.96-.8-1.17-.18-.08-.33,.22-.39,.62-1.08-.62-2.16-1.18-3.26-1.44-.49,.02-.48,1.84-.02,1.98,.42,1.08,.9,2.01,1.41,2.79,.02,.14,.05,.27,.1,.37,.25,2.47,.63,5.74,1.74,6.52,.9,.76,1.13-2.01,.21-1.87-.34-.29-.57-.86-.74-1.57,.53,.78,1.11,1.42,1.55,2.23,1.52,2.01,2.83,4.8,4.37,6.76,2.4,4.86,4.73,10.84,5.26,18.73,.03,.37,.16,.64,.3,.69-.01,2.85,.23,5.69,.27,8.56-.13,5.98,0,12.06,.1,18.05-.08,5.1-.23,10.2-.18,15.32-.26,14-.4,28.12-.05,42.14-.05,5.73,.14,11.42,.38,17.11-.11,3.29-.21,6.59-.23,9.9,0,.96-.05,8.28,.2,12.87t0,.03c-.23,9.34-.28,18.75-.02,28.1,.26,10.13,.75,20.67-.79,30.35-.14,.83-.27,1.67-.39,2.52,0,.03-.01,.07-.02,.1-.01,.15-.03,.29-.05,.42-.02,.17-.04,.34-.08,.49-.34,1.96-1.03,3.36-1.63,4.95-1.04,3.46-2.51,5.62-4.13,7.23-.7,.59-1.24,1.84-1.84,2.82-1.14,1.38-2.29,2.55-3.45,3.78-.09,.1-.18,.19-.27,.29-.11-1-.62-.78-.84-.15-.32,.83-.09,2.14,.38,2.16,.29,.15,.54,0,.79-.25,.55,.66,1.19,.79,1.77,1.17,.73,.42,1.46,.3,2.18,.2,.43-.07,.86-.12,1.31-.08,2.31,.76,4.67,.91,7.01,1.2,1.7,.46,3.33-.05,5.03-.12,2.01-.22,3.98,.42,6,.49,3.11-.05,6.23-.73,9.35-.76,1.85-.59,3.69-1.08,5.54-1.13,.47,.08,.94,.08,1.4,.05,.31,.03,.62,.07,.93,.14h.25c-.03-.05-.05-.12-.08-.17,.2,0,.39,.02,.6,.03,.45,.19,.9,.19,1.34,.1-.02,.17-.05,.32-.09,.47,.25,.15,.49,.34,.73,.61,.07,.1,.14,.14,.19,.14,.29,0,.47-.98,.29-1.57,.03-.02,.05-.02,.08-.03,.18-.07,.31-.44,.33-.86,.27,.14,.53,.25,.8,.35,.14,.05,.28,.03,.38-.22,.16,.12,.31,.25,.47,.37,.02,.03,.05,.05,.08,.08,.07,.1,.13,.14,.18,.14,.34,0,.53-1.33,.18-1.82Zm-12.12-15.55c-.21-.59-.42-1.2-.6-1.84,.11,.3,.22,.61,.32,.93,.09,.3,.18,.61,.28,.91Zm3.27,5.81c-.03,.1-.05,.24-.07,.39-.13-.37-.34-.74-.56-1.1-.15-.44-.32-.95-.51-1.5,.37,.76,.75,1.5,1.14,2.21ZM438.64,10.15s-.03,.02-.05,.03c0-.03-.02-.07-.03-.08,.03,.02,.05,.03,.08,.05Zm-.48-.25s-.08,.08-.1,.15c-.08-.12-.15-.22-.23-.32,.11,.05,.22,.12,.33,.17Zm3.34,6.65c-.21-.34-.43-.66-.65-.96,.14,.14,.28,.27,.42,.41,.04,.02,.08,.03,.11,.03,.06,0,.12-.03,.17-.08-.02,.17-.04,.37-.05,.61Zm2.69,3.24c-.18-.32-.63-1.47-1.1-2.53,.09,.14,.18,.24,.27,.34h0c.9,1.52,1.75,3.18,2.59,4.86-.62-.78-1.24-1.59-1.77-2.67Zm4.07,9.29c.12,.15,.25,.22,.37,.15,.22,.88,.44,1.76,.67,2.58,.08,.07,.16,.1,.23,.1,.24,0,.31-.46,.29-1.13,.23,1.32,.44,2.63,.64,3.97,.15,.9,.27,1.81,.38,2.72v.22c0,.62,0,1.25,0,1.87-.49-3.94-1.47-7.43-2.57-10.49Zm3.26,95.59c.03,1.25,.08,2.5,.15,3.73,0,1.25-.02,2.5-.04,3.75-.05-2.48-.09-4.98-.11-7.48Z"/>
    <path class="cls-2" d="M628.47,15.39c.47-1.11,.2-1.93-.33-2.19,.12-.24,.16-.56,.13-.95-.08-.46-.36-.88-.7-.86,.39-1.41,.7-2.92-.12-3.58-.27-.12-.59,.04-.74,.4-.31,.89-.59,1.79-.87,2.68-.46-.28-.92-.58-1.41-.68-1.53-.18-3.05-.05-4.59,.11-1.23-1.22-2.58-1.89-4.07-1.8-1.24-.2-5.44-1.6-6.38,.4-2.74,.23-5.42-.51-8.13-.97-2.92-.36-5.78,1.06-8.65,1.16-.56,.02-1.14-.08-1.73-.16-1.32-.22-2.68-.44-3.82,.53-.67-.08-1.82-.38-1.9,.83-.8-.16-1.59-.3-2.38-.38-.19-.06-.37-.14-.56-.22-1.02-.52-2.01-1.06-2.98-1.72-.36-.28-.84-.14-1.04,.44-.09,1.01,.11,1.83,.5,2.47-.33,.93,.24,2.43,.64,3.22,1.17,2.81,3.47,2.97,4.63,5.86,2.37,4.72,5.34,8.6,8.26,12.54,.3,.38,.61,.76,.92,1.1,.58,1.45,1.07,2.98,1.52,4.52,.69,1.79,1.34,3.5,1.95,5.15,1.73,11.97,3.07,24.07,3.3,36.36,.24,4.53,.21,9.21,.2,13.76,.18,1.85-.46,5.05,.37,6.4-.13,11.31,1.1,22.59,.64,33.89-.07,4.06-.18,8.13-.24,12.21-.1,.2-.17,.46-.16,.72,.02,1.53,.07,3.06,.13,4.59,0,1.09,0,2.17,.03,3.26,.01,.24,.05,.46,.13,.64,.23,3.24,.39,6.5,.55,9.76,.23,.18,.43,.46,.61,.78,.03,.06,.06,.1,.09,.16,.24,.44,.44,.98,.6,1.49,.22,.68,.37,1.41,.28,2.13-.03,.16-.05,.3-.08,.44-.07,.24-.16,.46-.27,.66-.03,.06-.05,.1-.09,.16-.01,.04-.05,.08-.08,.1-.01,.04-.03,.06-.05,.08h-.01c-.09,.12-.18,.2-.27,.26-.04,.06-.08,.08-.12,.1-.1,.08-.21,.12-.31,.16,.06,1.55,.14,3.08,.2,4.61-.71-1.13-1.38-2.33-1.98-3.62-.71-1.25-1.44-2.51-2.2-3.7-1.02-2.37-1.98-4.78-2.95-7.18,.18,.24,.35,.48,.53,.72,.89,1.21,1.77,2.45,2.64,3.68-.12-.4-.23-.8-.36-1.19-.08-.22-.15-.46-.24-.68-.35-.8-.72-1.53-1.08-2.31-.03-.04-.05-.1-.08-.14v-.02c-.08-.16-.15-.3-.22-.46-1.02-2.09-1.78-3.68-2.48-5.33v-.02s-.01-.02-.03-.02c-.01-.04-.01-.06-.03-.08s-.03-.04-.03-.06c-.04-.08-.08-.16-.1-.24v-.02s-.01,0-.01-.02v-.02c-.86-1.95-1.69-3.92-2.61-5.79-.44-.88-.88-1.77-1.35-2.63-.04-.08-.08-.14-.12-.22-.01-.02-.03-.04-.03-.06-.22-.38-.44-.78-.66-1.17-.5-.94-1.11-1.91-1.35-3.08-.06-.28-.09-.58-.08-.86,0-.16,.01-.32,.03-.46-.42-.86-.85-1.71-1.29-2.57-.32-.72-.64-1.41-.99-2.11-.44-1.27-.87-2.55-1.32-3.82-7.66-17.79-15.4-35.53-22.17-54.19-1.41-3.82-3.01-7.96-4.67-12.22-.17-.64-.35-1.25-.51-1.89-3.59-12.85-6.3-26.26-9.51-39.33,.02-3.66,.21-7.34,.29-11.02,.04-.06,.06-.12,.08-.2,.1-.36,.08-.68-.05-.93,0-.22,0-.44,0-.68,.57,.08,1.12,.18,1.68,.26-.03-.24-.05-.5-.08-.74-.02-.42-.05-.84-.06-1.25-.01-.12-.01-.26-.03-.38-.59-.1-1.18-.2-1.77-.3-.18-.24-.44-.32-.7-.16-.03,.02-.04,.02-.05,.04-4.85-.75-9.73-1.13-14.63-.81-5.79-.95-11.61-.4-17.37,.88-2.95,.39-5.91-.07-8.86-.54-3.76-.56-7.51-1.15-11.21,.02-.28-.04-.52,.12-.69,.38l-1.85-.18c-.13-.18-.26-.34-.39-.5-.31-.28-.63-.16-.84,.18-.12-.08-.26-.08-.43,.02h-.01c0-.06-.03-.1-.05-.12-.28-1.25-1.33-1.26-1.42,.22,.01,.1,.04,.24,.06,.38-.01,.2,0,.42,.05,.64,.04,.12,.09,.24,.14,.34,.17,.64,.4,1.21,.75,1.27,.03,.04,.04,.08,.08,.12,1.42,2.59,2.99,4.98,4.32,7.68-.03-.04-.04-.06-.06-.1,2.46,4.8,5.17,9.48,8.16,13.6,.18,.24,.35,.46,.5,.72,.03,.02,.04,.04,.05,.08,.55,1.06,1.13,2.07,1.77,2.99h.05s.01,0,.01,0c.43,.78,.86,1.55,1.31,2.33,.82,1.73,1.23,5.11,2.56,5.89,.09-.02,.17-.04,.25-.08,.05,5.57,.07,11.16,.28,16.72-.61,11.61-1.2,23.4-.68,35.08,1.16,14.78-.16,29.77,.52,44.64,.56,6.05,.75,11.97,.22,18.06-.16,8.17-.14,16.46,.11,24.6,0,20,.07,40.01-.13,60.01-.41,3-.57,6.02-.59,9.05-.04-.04-.08-.06-.12-.06-.4,0-.7,.58-.7,1.15,.27,4.99-.55,9.7-1.72,14.43-1.02,6.06-5,9.85-8.31,12.93-2.24,2.36-4.72,4.29-7.12,6.33l-.75,.63c-1.45,1.27-2.88,2.6-4.18,4.13-3.14,5.96,2.71,4.26,4.7,2.85,3.42,1.54,7.12,3.1,10.71,2.39,2.54-.87,5.1-1.96,7.71-1.18,3.95,1.24,8.14,1.55,12.16,1.26,1.22-.38,2.19-2.08,3.51-1.72,1.2,.32,2.44,.16,3.66,0,.87-.12,1.72-.22,2.59-.17,1.42,.34,2.8,1.08,4.24,.88,1.91,.1,3.7-.19,5.61-.43,2.22,.92,4.51,1,6.76,1.7,.12,.06,.25,.1,.37,.1,1,0,2.33-1.59,1.8-3.04-.24-.46-.46-.52-.68-.4l-.06-.3c.58-.22,.74-1.61,.2-2.13-1.15-.5-2.4-.58-3.54-1.3-1.54-1.4-2.77-3.64-4.39-4.98-4.79-4.34-8.78-8.37-12.59-14.82-2.09-2.73-4.05-5.72-5.44-9.24-.17-3.82-.42-7.64-.6-11.51-.21-9.19,.28-18.69,.04-27.96-.09-12.79,1.19-25.49,1.71-38.24,.12-12.21,.15-24.42,.05-36.61-.61-16.37-.04-32.85-.49-49.24,.03-15.11-.99-30.43,.17-45.46,.76,2.09,1.37,4.48,2.13,6.29,1.02,2.91,2.08,5.75,3.15,8.62,.04,.08,.06,.16,.09,.26,1.04,3.2,2.07,6.45,3.04,9.71-.03-.02-.05-.02-.08-.02-.37,0-.72,.38-.82,.95-.14,.87,.35,1.55,.67,2.15,.68,.8,1.26,3.92,2.31,3.25,.45,1.31,.89,2.63,1.32,3.96,.03,.16,.05,.3,.08,.46,.45,1.27,.63,6.32,1.9,5.75,1.44,4.62,2.79,9.27,4.04,14.01,.41-.18,.87-.08,1.23,.28,.01,.02,.03,.02,.04,.04,.09,.08,.15,.18,.22,.28,.08,.14,.14,.28,.21,.44,.55,1.53,1.01,3.16,1.52,4.78,.44,1.39,.87,2.81,1.31,4.22,.41,1.23,.81,2.49,1.19,3.72,.42,1.33,.85,2.67,1.27,4,.45,1.39,.9,2.77,1.34,4.16,.41,1.27,.81,2.55,1.22,3.82v.02s.01,.04,.03,.04c0,0,0,.02,.01,.04s.01,.06,.03,.1c.01,.02,.01,.06,.03,.08v.02s.01,0,.01,.02v.02s.04,.08,.05,.14c.01,.04,.04,.1,.05,.14v.02c.03,.06,.04,.12,.06,.18,0,.02,.01,.02,.01,.04,.01,.02,.01,.06,.03,.08,.01,.06,.04,.1,.05,.16v.02s.01,.02,.01,.02v.02s.03,.04,.03,.06c.01,.02,.01,.04,.01,.04t.01,.04v.02c.04,.1,.08,.22,.12,.32,.03,.08,.05,.18,.08,.26,.04,.14,.09,.26,.14,.4v.02s0,.02,0,.02c.05,.16,.1,.32,.17,.48v.02c.04,.1,.06,.18,.09,.28,.01,0,.01,.02,.01,.02,.03,.1,.05,.18,.08,.26,.03,.06,.04,.12,.06,.18,0,.02,.01,.02,.01,.04v.02c.12,.34,.23,.64,.33,.98v.02s0,.02,0,.02c.01,.02,.01,.04,.03,.06,.04,.12,.09,.26,.13,.38,.05,.14,.09,.3,.14,.44,.12,.34,.22,.72,.35,1.07,.09,.28,.18,.56,.27,.82s.17,.52,.26,.76v.02c.05,.18,.12,.36,.17,.52v.02s.01,.02,.01,.04c.14,.4,.27,.8,.4,1.19,.04,.14,.08,.26,.14,.4,0,.04,.01,.06,.03,.08,0,.04,.01,.06,.03,.08,0,.02,0,.04,.01,.04,.04,.12,.09,.28,.13,.4,.05,.18,.12,.38,.18,.56,.06,.22,.14,.4,.19,.62,.01,.02,.01,.06,.03,.08v-.04s.03,.08,.04,.12c-.01-.02-.03-.06-.04-.08,.06,.18,.13,.34,.18,.54t.01,.04s.01,.02,.01,.04c.03,.06,.04,.12,.06,.18,.04,.12,.08,.24,.12,.38v-.04c.01,.08,.04,.14,.06,.2v.02s.01,.02,.01,.02c0,0,0,.02,.01,.04,.04,.12,.08,.24,.12,.36,.03,.08,.05,.16,.08,.22-.01,0-.01-.02-.03-.04,.01,.04,.03,.08,.04,.12,0,0,.01,0,.01,.02,.03,.06,.03,.1,.04,.12v.02c.05,.14,.09,.28,.14,.4,.05,.18,.1,.34,.17,.5,.05,.18,.1,.34,.15,.5,.03,.06,.04,.12,.06,.18,.04,.12,.08,.24,.12,.36,0,0,0,.02,.01,.02v.02c.08,.24,.15,.48,.23,.72,.09,.24,.17,.5,.24,.76,.12,.34,.23,.66,.33,.99,.08,.24,.15,.48,.23,.7,.05,.18,.12,.38,.18,.56,.09,.26,.18,.54,.27,.82,.01,.04,.01,.06,.03,.08,.03,.08,.05,.18,.08,.24,.08,.24,.15,.48,.23,.7,.06,.2,.13,.42,.19,.62,.05,.12,.09,.26,.13,.4h.01s.01,.06,.03,.08c.03,.08,.05,.14,.06,.22t.01,.04h.01s.01,.08,.04,.12c.03,.08,.05,.16,.06,.22,.04,.1,.06,.2,.09,.28,0,.04,.01,.06,.03,.08v.02c.03,.06,.04,.1,.06,.16v.02s.01,.02,.01,.02c.01,.04,.03,.1,.04,.14,.01,.02,.01,.04,.03,.06,.01,.04,.03,.08,.04,.14v.02s.01,.02,.01,.02c.01,.04,.03,.08,.04,.12,0,0,0,.02,.01,.02,0,.02,.01,.04,.01,.06v.02s.01,.02,.03,.04v.02s.01,0,.01,0v.02s0,.02,0,.02c.01,0,.01,.02,.01,.02v.02s.01,.02,.01,.02c0,.02,.01,.04,.03,.06t-.03-.04c.06,.16,.12,.3,.15,.46,.04-.06,.06-.12,.09-.2,.95,2.77,1.86,5.57,2.65,8.46,2.25,6.77,4.5,13.51,6.73,20.28,.03,.04,.04,.1,.05,.14,.03,.1,.06,.18,.09,.26,1.36,4.06,2.76,8.1,4.15,12.12,1,2.95,2.01,5.85,3.01,8.78,.45,1.31,.93,2.63,1.36,3.94,.33,.94,.66,1.89,.99,2.83,.75,2.09,1.49,4.18,2.22,6.27,.75,2.09,1.48,4.16,2.21,6.23,.33,.94,.67,1.83,.98,2.77,1.66,4.82,3.33,9.63,4.99,14.43,.19,.56,.39,1.11,.55,1.69,.23,.74,.48,1.47,.72,2.21,.17,.56,.33,1.11,.51,1.67,.67,2.13,1.35,4.28,2.02,6.41,.44,1.13,.89,2.25,1.34,3.36,0,.04,.01,.06,.03,.08,0,.04,.03,.08,.04,.12,.12,.36,.23,.72,.35,1.07-.32-.62-.62-1.25-.9-1.91,.08,.26,.15,.52,.23,.78,.49,1.67,.99,3.32,1.48,4.97,.59,1.99,1.18,4,1.76,5.99,.85,2.11,1.69,4.26,2.51,6.41-.08,.1-.16,.24-.21,.44-.18,1.57,.93,2.85,1.35,4.2,.85,2.01,1.83,3.86,2.88,5.61,.01,.02,.03,.04,.04,.06,.62,1.53,1.25,3.03,1.92,4.52-.88,1.63,.96,3.22,1.56,4.4,.13,.16,.27,.24,.43,.24,.04,0,.08,0,.12-.02h.01c.42,1.23,.87,2.47,1.35,3.68,.03,.08,.06,.16,.09,.24,0,0,.01,0,.01,.02,.6,2.31,1.32,4.52,2.52,6.09,.15,.14,.32,.2,.49,.2,.31,0,.63-.2,.93-.36,.32,.02,.66,.02,1-.04,.31,.48,.57,.84,.71,1.1,.18,.28,.36,.36,.54,.34,.08,.16,.15,.3,.23,.46,0-.2,0-.38-.01-.58,.39-.3,.62-1.21,.21-1.83-.08-.12-.14-.22-.22-.32,.13-.16,.25-.34,.32-.58,.14,.97,.41,2.03,.42,2.67,.36,1.39,.15,3.58,1.05,4.42,1.01,.32,.93-1.55,.82-2.56-.15-2.39-.24-4.79-.21-7.22,.7-.63,.44-1.99,.5-3.02,0-7.04-.13-14.06-.15-21.12,.12-.2,.18-.46,.17-.72-.06-.88-.13-1.75-.19-2.63,0-.8,0-1.61,0-2.41,.43-.3,.48-1.03,.43-1.65-.04-4.1-.16-8.21-.34-12.27,0-.1-.01-.18-.01-.28-.33-9.29-.38-18.71-.16-28.02,.18-3.92,.49-7.81,.86-11.71,.03,.36,.04,.7,.05,1.05v.08c.05,.76,.09,1.53,.14,2.29,.01-.84,.04-1.69,.06-2.53-.01-.32-.04-.64-.05-.95,.06,.02,.12,.02,.18,.02,.36-.16,.54-.71,.51-1.27-.09-1.71-.17-3.4-.26-5.09,.21-2.31,.44-4.59,.61-6.88-.06-.78-.07-1.87-.71-2.03-.12,0-.22,.04-.31,.1-.11-2.61-.21-5.21-.29-7.87-.17-17.3,.42-34.58,.38-51.9-.06-9.74,.35-19.92-.15-29.61,.05-1.43,.12-2.86,.18-4.27,1.5,1.57,1.27-2.24,1.27-3.62,.03-13.62,.11-27.06,.86-40.66,.77-11.33,.73-22.89,1.26-34.28v-.02c.34-2.64,.75-5.25,1.28-7.77,.43-1.63,1.08-3.04,1.82-4.39,0,0-.01-.02,0-.02,.03-.02,.06-.04,.1-.08,.93-1.01,2.01-1.98,2.68-3.47,.16-.4,.11-.89-.07-1.27,.05-.1,.1-.2,.16-.3Zm-105.33,29.63c-.36-.1-.71-.12-1.07-.28-.09-.32-.13-.68-.17-1.01,.54,0,.94,.74,1.32,1.32-.03-.02-.05-.02-.08-.02Zm3.73,11.5c.05,.22,.1,.44,.15,.66-.06-.14-.13-.3-.19-.44,.01-.08,.03-.16,.04-.22Zm60.53,91.44s.04,.06,.05,.1c.06,.18,.15,.34,.23,.5,.09,.18,.17,.36,.26,.56-.17,.16-.31,.44-.39,.93-.55-.88-2.62-6.83-4.63-11.38,1.53,3.05,2.97,6.19,4.48,9.3Zm-16.33-36.74s-.03-.02-.01-.04c-.13-.42-.26-.84-.4-1.25,.73,1.71,1.45,3.42,2.17,5.13-.61-1.27-1.18-2.55-1.76-3.84Zm9.6,24.36h-.01c-.04-.1-.08-.2-.13-.32,.04,.12,.09,.22,.14,.32Zm28.98,163.22c-.03-.14-.06-.28-.09-.4,.05,.08,.1,.16,.14,.26-.01,.04-.04,.1-.05,.14ZM545.01,16.05c-.09-.6-.07-1.33-.09-2.07,.06-.02,.14,0,.21,.04-.05,.68-.05,1.39-.12,2.03Zm78.55-1.03c.23,.3,.48,.56,.77,.68-.04,.16-.09,.3-.13,.46-.22,.04-.45,.06-.69,.08,.01-.42,.03-.82,.04-1.21Zm-7.54-4.17c-.13,.16-.22,.42-.23,.68-.05,.04-.09,.1-.14,.16-.49-.2-1.03-.18-1.58-.14-.19,.02-.37,.02-.56,.02,.12-.38,.09-.83-.04-1.23,.84,.16,1.69,.4,2.55,.52Zm-6.62,.36c.03,.08,.06,.14,.09,.2-.17-.02-.35-.02-.53-.04-.62-.04-1.25-.1-1.89-.16,.78,.04,1.54,.02,2.33,0Zm-82.5-.75c2.82,.58,5.66,.53,8.49,.48,1.63-.04,3.26-.07,4.89,.01,.62,.12,1.25,.22,1.87,.32-3.03-.11-6.41,.23-7.27,.02-4.51-.37-9.05-.5-13.57-.55,1.86-.27,3.71-.43,5.59-.29Zm22.2,116.51s.08,0,.12-.02c.45,1.55,.9,3.08,1.35,4.64-.48-1.55-.96-3.08-1.46-4.62Zm28.31,86.02c.64,.92,1.67,5.11,2.69,4.28,.15,.54,.31,1.05,.46,1.57,1.58,5.27,3.2,10.53,4.8,15.8-2.82-7.09-5.49-14.25-7.96-21.65Zm34.55,93.13c-.46-.96-.86-1.95-1.21-2.99,.49,.94,1.07,1.87,1.61,2.75-.14,.04-.28,.12-.4,.24Zm11.31-286.46c.04-.36,.07-.74,.09-1.11,.06,.02,.13,.02,.19,0-.09,.36-.18,.74-.29,1.11Z"/>
    <path class="cls-3" d="M620.41,294.1c-.03,1.91-.07,3.8-.1,5.71,.14-.1,.26-.3,.36-.6,.22-1.65,.02-3.36-.18-5.05-.03-.02-.05-.04-.08-.06Z"/>
    <path class="cls-3" d="M596.97,144.27c-.08-.42-.15-.84-.23-1.25-.24-.5-.49-1-.73-1.49,.15,.44,.3,.86,.45,1.29,.17,.46,.35,.96,.51,1.45Z"/>
    <path class="cls-2" d="M555.87,8.53h-.01s0,.02,.01,.02v-.02Z"/>
    <path class="cls-2" d="M342.49,140.34h0c.27-2.62-.66-10.63-.9-11.67-.45-2.53-.98-4.95-1.5-7.38-.1-.44-.19-.89-.3-1.31-.18-.6-.53-.17-.54,.47-.27-.98-1.97-6.89-2.43-5.47-.03,.11-.05,.22-.05,.32-.7-2.04-1.53-3.86-2.55-5.28-1.42-1.84-2.63-4.46-3.85-6.97-.53-1.24-5.54-11.43-7.48-12.64-.03-.09-.06-.17-.1-.24-1.02-2.13-2.11-4.05-3.19-5.98-.7-1.35-1.45-2.59-2.2-3.78-.32-.51-.63-1-.96-1.5h0c-1.81-2.77-3.65-5.42-5.29-8.73-.27-.63-.54-1.28-.81-1.94-.46-1.16-.91-2.36-1.34-3.57-.35-.95-.69-1.92-1.03-2.87-1.45-3.63-2.81-7.67-3.2-12.71,.32-.14,.29-1.05,.28-1.65-.01-3.01-.2-5.99-.25-8.99,.21-2.01,.5-3.9,.8-5.92,.03,.91,.01,1.89,.18,2.75,.13,.65,.51,.56,.6-.11,.33-3.61,.53-7.35,1.37-10.58,1.7-6.06,4.77-7.4,7.66-8.18-.06,.22-.05,.52,.04,.93,.03,.2,.06,.41,.1,.61,.14,.89,.69,.29,.54-.55,2.19,.01,4.28,1.56,6.2,3.96,1.12,1.35,2.33,2.22,3.26,4.32,.66,1.47,1.27,3.05,1.86,4.63-.01,.2,0,.42,0,.61,0,.65,.29,.88,.46,.6,.78,2.08,1.56,4.15,2.41,6.06,.06,.25,.15,.36,.23,.36s.17-.1,.23-.25c.64,2.39,1.53,4.37,2.15,6.79,.71,2.79,1.21,5.98,2.21,8.3,.15,.34,.29,.71,.4,1.12,.21,.55,.58-.08,.48-.74,.26,.77,.52,1.52,.8,2.25,.02,.05,.03,.09,.05,.14,.52,1.74,1.28,3.11,1.74,5.03,.19,.47,.52,.08,.51-.55-.07-.75-.21-1.41-.39-2.01,.16-.65,.04-1.92,.08-2.58,.03-3.62-.05-7.25-.16-10.87-.01-2.97,.01-5.95-.03-8.92-.02-.67,.02-1.8-.36-1.85-.01-3.48-.04-7-.02-10.49v-.1c.07-2.77,.25-5.5,.46-8.21,.01-.83,.38-1.47,.26-2.29-.23-1.03-.62-.11-.68,.67h0c-1.53,2.18-3.48,1.8-5.22,1.42-.45-.95-.99-1.45-1.56-1.76-.81-1.17-1.61-2.36-2.57-2.79,.09-.46-.08-1.13-.31-1.03-.14,.1-.28,0-.42-.06-.24-.1-.53-.37-.75,.01-.14,.28-.14,.65-.06,.95-1.53-1.49-3.02-3.22-4.65-3.81-1.69-.8-3.35-1.82-5.09-1.52-.9,.09-1.73-.17-2.64-.23-.91,.06-1.8,.65-2.71,.77-1.45,.25-2.92-.23-4.35,.38-.07,.03-.13,.1-.17,.22-.12,.09-.24,.24-.34,.36-1.39,1.35-2.78,2.72-4.04,4.67-.47-3.72-4.51,5.46-5.23,6.78-1.29,2.25-2.75,3.99-3.93,6.58-2.25,5.33-3.18,12.97-4.15,19.96-.32,3.2-.7,6.61-.48,9.89,.12,.28,.23,.38,.31,.36-.01,3.87,.03,7.74,.45,11.5,.37,3.61,1.15,6.96,2.28,9.52,.32,.76,.71,1.37,.92,2.37,1.77,6.55,4.34,11.48,7.03,15.74,1.85,3.91,3.84,7.4,5.65,11.39,1.53,3.48,3.44,5.85,5.14,8.84,3.39,4.89,6.58,10.49,9.64,16.47,1.04,2.17,2.42,3.4,3.28,5.94-.02,.18,0,.37,.03,.53,.66,2.59,1.48,4.94,2.31,7.25,1.34,3.31,2.57,7.01,2.74,11.76,.09,1.17,.18,2.35,.26,3.55-.12,2.59-.38,5.15-.78,7.59-.83,3.14-1.99,6.37-2.11,10.22-3.28,5.8-7.53,8.77-11.61,8.77-.95-.1-1.83-.85-2.77-1.36-.23-.15-.37,.33-.36,.77-.1-.04-.21,.06-.26,.34-.23,.14-.48-.11-.71-.28-1.33-1.43-2.7-2.75-4.03-4.27-.85-1.09-1.52-2.64-2.09-4.41-.25-.38-.51-.79-.75-1.21-.02-.04-.04-.08-.06-.11-.1-.18-.2-.36-.3-.55-.12-.23-.24-.46-.36-.7-.7-1.41-1.32-3.02-1.9-4.71-.11-.34-.23-.69-.34-1.03-.28-.88-.55-1.76-.8-2.69-.19-.7-.38-1.4-.56-2.09h0c-.02-.09-.04-.17-.06-.24-.03-.13-.07-.25-.1-.38-.15-.55-.31-1.09-.45-1.66-.16-.67-.32-1.33-.49-2.01,0-.01-.01-.03-.02-.03-.02-.06-.04-.1-.06-.17h0c-.2-.51-.39-1.03-.58-1.55-.09,0-.16,.06-.21,.22-.22-.86-.43-1.79-.63-2.73-.66-2.13-1.24-4.42-1.77-6.77-.25-1.13-.49-2.29-.73-3.45,.1,.9,.2,1.68,.24,2.04-.49-1.93-.77-4.04-1-6.18-.17-1.03-.34-2.06-.49-3.1-.2-1.35-.37-2.7-.51-4.09-.04-.46-.09-.91-.13-1.38-.02-.19-.03-.37-.05-.56-.04-.11-.09-.18-.16-.19,0-.14-.01-.29-.02-.43-.02-.41-.03-.81-.09-1.19-.05-.32-.2-.52-.34-.42-.13,.09-.2,.39-.21,.71v.41c-.14,.06-.24,.39-.24,.72v7.07c0,.72,.01,1.45,.01,2.17,0,.63,.02,1.27,.03,1.9,.01,.63,.03,1.28,.05,1.92,0,.86,.02,1.71,.03,2.58v.06c-.02,.72-.03,1.45-.05,2.17-.17,4.8-.41,9.58-.38,14.4-.2,3.64-.28,7.31-.31,10.98-.03,.18-.04,.37-.05,.56-.02,.33-.03,.67-.05,1-.03,.7-.06,1.4-.08,2.09-.01,.33-.02,.67-.02,1.02,0,.27-.01,.52-.01,.79,0,.38,.01,.77,.01,1.17,0,.33,.02,.66,.03,.99,.02,.63,.05,1.28,.12,1.9,.01,.06,.02,.14,.03,.2,0,.55,0,1.1,.02,1.66,0,.03,0,.04,0,.06-.01,.42-.01,.85-.01,1.28,0,.34,0,.69,0,1.03,0,.44,0,.88,.03,1.32,.02,.36,.08,.71,.16,1.03,0,.88,0,1.76,.01,2.64,.02,.37,.11,.55,.21,.6-.09,.25-.13,.69-.08,1.04,.03,.33,.1,.51,.2,.57-.05,.43,.06,.99,.3,.99,.02,0,.03,0,.04-.01,.73-.48,1.41-1.24,2.08-2.04,.84-.22,1.68-.61,2.53-.76,1.64-.33,3.32,.15,4.96,.44,.26,.03,.35-.62,.27-1.07,.38,.22,.75,.41,1.12,.56,2.4,1.22,4.79,2.64,7.21,3.67,.02,.01,.03,.01,.04,.01,.14,0,.26-.25,.29-.58,1.85,.58,3.72,.95,5.59,1.23,.04,.03,.09,.04,.13,.04,.22,0,.43-.32,.42-.84,1,.22,2,.41,3.01,.57,.54,.09,1.09,.15,1.64,.19,.2-.28,.45-.37,.68-.48,.66-.42,1.33-.84,1.99-1.26-.22,.05-.45,.09-.67,.14,.79-.44,1.57-1.08,2.33-1.65,1.64-1.45,3.43-1.97,4.98-4.01,.3-.48,.6-1,.88-1.55,.38,.27,.79-1.38,1.1-1.83,.58-1.35,1.2-2.54,1.86-3.66,0,.08,0,.15,.02,.23,.23,1.37,.71-.09,.93-.7,.61-1.68,1.23-3.35,1.82-5.04,.03-.06,.05-.14,.08-.2,.32-.84,.63-1.7,.95-2.56,.12-.5,.58-1.52,.74-2.36,0-.01,0-.03,0-.03,.51-1.64,.95-3.36,1.37-5.12,.58-1.07,1.21-3.49,1-4.33,.01-.09,.03-.17,.04-.24,.1-.44,.19-.88,.29-1.31,.21-.27,.36-1.09,.46-1.99,.05-.17,.08-.37,.06-.56t0-.03c.09-.9,.15-1.79,.19-2.21,0-.01,0-.03,0-.03,.1-1.14,.11-2.27,.08-3.42,.09-.67,.17-1.36,.25-2.02,.36-3.73-.08-7.58-.18-11.34Zm-12.72,27.36s-.01,0-.01,.01c0-.04,.01-.08,.02-.11,0,.04,0,.06,0,.1Zm5.7,11.03c.01-.09,0-.18,0-.27,.09-.13,.18-.27,.26-.41-.09,.23-.18,.44-.26,.67Zm-6.31-146.05c0,.08,0,.15,0,.24-.06-.17-.13-.33-.19-.5,.06,.09,.12,.17,.18,.25Zm-34.34-7.77c-.44,1.6-1.11,2.81-1.56,4.42,.42-1.65,.94-3.15,1.56-4.42Zm-4.04,39.65c.08,.32,.16,.61,.23,.91,.3,1.87,.64,3.68,1.05,5.43,.1,.6,.2,1.23,.31,1.92-.82-2.32-1.33-5.31-1.59-8.26Zm2.78,10.83s0-.01,.01-.03c0,0,0,.01,0,.01,.1,.29,.19,.6,.29,.9-.14-.22-.23-.55-.31-.89Zm1.32,4.53c.86,1.6,1.4,3.96,2.22,5.73-.81-1.76-1.53-3.71-2.22-5.73Zm34.97,85.1c-.02-.06-.05-.1-.09-.13,.02-.16,.05-.42,.09-.76,0,.29,0,.58,0,.89Zm-26.08,11.27s.07,.06,.11,.06c.05,0,.11-.04,.15-.11,.19,.7,.38,1.38,.6,2.03h-.09c-.82-.51-1.35-2.06-1.82-3.69,.34,.6,.7,1.17,1.05,1.71Zm-5.48-13.71c-.12-.36-.24-.72-.37-1.08-.84-2.42-1.45-5.22-1.84-8.21,.68,3.16,1.38,6.32,2.2,9.29Zm-2.34,29.72c.11-.11,.23-.2,.35-.3h.01c.59-.25,1.19-.43,1.79-.6-.08,.23-.08,.48-.03,.7-.71-.03-1.41,.03-2.12,.2Zm3.04-.13c.53-.11,1.07,.01,1.61,.25-.54-.11-1.07-.2-1.61-.25Z"/>
    <path class="cls-3" d="M296.36,145.02c-.03-.13-.05-.25-.07-.38-.09-.47-.16-.98-.24-1.46-.04-.22-.07-.43-.11-.65,.1,.85,.23,1.8,.38,2.81,0-.08,.01-.14,.02-.2,0-.04,.01-.08,.02-.11Z"/>
    <path class="cls-2" d="M96.08,14.57c.36-.55,.7-1.07,1.05-1.59,.62-.94,1.27-1.83,1.93-2.73-.13,0-.25,.02-.4,.02-.66,1.11-1.32,2.22-2,3.34-.2,.31-.39,.63-.59,.96Z"/>
    <path class="cls-2" d="M187.86,307.46c.68-1.05,.03-3.26,.04-4.5-.48-4.21-.88-8.42-1.29-12.63-.17-1.76-.35-3.49-.52-5.23-.03-1.78-.26-3.54-.45-5.32v-.02c-.25-3.13-.44-6.25-.55-9.4-.07-2.5-.07-5.02-.25-7.49-.02-.37-.2-.69-.46-.89-.04-5.97,.03-11.92,.08-17.85,.11-8.25,.72-16.45,1.43-24.64-.1-1.52,.73-4.61-.83-5.23-.7-.13-1.11,.7-1.2,1.42-.02,.17-.03,.35-.05,.52-.13-.24-.29-.41-.53-.5-.51-.19-1.08,.25-1.18,.88-.66,3.74-1.38,7.46-2.11,11.18-.51-.15-1.04,.27-1.15,.88-.44,1.98-.91,3.94-1.39,5.89-.53,1.39-1.08,2.74-1.69,4.09-.53,1.2-1.1,2.37-1.69,3.55,0,.02-.02,.04-.04,.07,0,.02-.02,.04-.04,.07-.04,.09-.07,.17-.12,.26-.3,.7-.6,1.37-.92,2.09,0,.04-.02,.07-.02,.09-.02,.04-.04,.07-.05,.11-.14,.35-.3,.68-.44,1-.02,.04-.04,.11-.05,.15-.11,.28-.19,.54-.3,.83,.09-.15,.18-.28,.29-.44,.02-.02,.04-.07,.05-.09,.14-.24,.29-.46,.43-.68,.04-.07,.07-.13,.11-.17,.12-.2,.25-.37,.36-.57,.07-.09,.14-.2,.2-.31,.05-.09,.13-.17,.18-.26,.04-.07,.05-.13,.09-.2-1.49,4.07-2.81,8.21-3.88,12.45-.11,.24-.23,.48-.34,.74-1.9,4.53-4.2,8.8-6.17,13.29-1.54,3.86-3.16,7.75-5.63,10.82l-69.75,12.71c-.25-.31-.5-.62-.73-.95-.02-.04-.05-.09-.07-.13-.45-.67-.86-1.36-1.24-2.1-.11-.19-.2-.39-.31-.58-.33-.67-.64-1.36-.93-2.08-.04-.11-.09-.22-.15-.32-.7-1.82-1.25-3.71-1.68-5.61-.13-.42-.24-.84-.36-1.27l-1.69-250.29c2.57-4.75,5.53-9.22,8.85-13.26l1.45-1.7c3.6-4.15,7.52-7.82,11.68-10.91,.74-.55,1.76-1.03,2.49-1.67,.82-.74,.16-2.56-.86-2.21-3.15,1.26-6.46,1.54-9.62,2.69-3.16,1.08-5.93,2.86-9.17,3.82-4.14,.96-8.5,.32-12.53,2.06-.5,.22-1.01,.44-1.51,.64-.56,.07-1.12,.16-1.69,.31-1.04,.25-2.07-.05-3.07-.48-2.88-.22-2.87-.35-5.47-.9-.58,.09-1.02,.51-1.31,1.03-5.7-.4-11.5-.36-17.16-.26-3.48,.17-6.91-.54-10.37-.82-3.61-.41-7.19-.26-10.78-.1-2.88,.13-5.76,.25-8.65,.1-.59,0-1.17-.01-1.77-.01-1.98,.01-3.95,.03-5.93,0,.09,.41,.19,.82,.3,1.24-1.1-.21-2.2-.46-3.3-.7,.44,.78,.88,1.6,1.29,2.42,.16,.13,.33,.28,.49,.43,.63,.08,1.26,.19,1.89,.29-.32,.48-.41,1.24,.01,1.72,.33,.45,.67,.89,1,1.34-.6-.34-1.19-.73-1.72-1.25-.89-.67-1.78-2.07-2.88-2.41-2.09-.25-1.96,2.73-.43,3.61,1.23,1.23,2.93,1.5,4.2,2.62-.7,.44-.98,2.03-.04,2.54,.31,.08,.63,.1,.94,.1,.36,0,.74-.05,1.1-.12,.69,.99,1.36,2.03,2.02,3.09,1.75,5.4,5.89,8.69,8.82,13.17,4.84,9.87,6.26,21.35,7.33,32.51,.02,.28,.11,.48,.22,.65,.05,7.91,.07,15.81,.21,23.72-.75,3.52,.05,7.34-.02,11.03,.36,8.97,.76,17.96,.66,26.97-.33,16.18,.06,32.36,.53,48.54-.18,.15-.32,.41-.39,.7-.2,2,0,4.08-.07,6.13,.3,4.78-.66,11.84,.27,16.09,.23,18.72-.09,37.43-.42,56.15l-13.58,59.56s.02,0,.02-.02l3.35-.87c-1.22,.92-2.51,1.68-3.99,2.01-.02,.02-.05,.02-.09,.04-.12,.22-.29,.44-.43,.68-.27,.41-.54,.83-.82,1.22-.07,.11-.14,.2-.21,.28-.32,.44-.66,.83-1.07,1.16h-.02c-.2,.18-.43,.31-.65,.37-.07,.09-.13,.15-.18,.24,.95-.03,1.93-.03,2.9-.06,.18,0,.38,0,.56,0,5.53-.1,11.08-.18,16.63-.28,1.35,.38,2.71,.76,4.08,.89,.52,0,.83-.46,.89-.98,7.37-.18,14.72-.4,22.07-.86,9.73,.2,19.59,.61,29.37,.38,13.04-.95,26.14-.93,39.26-.9,7.44,.04,14.88,.03,22.33-.12,8.99,.14,18-.09,27.01-.33v.35c0,.83,.5,1.21,.98,1.21s.97-.42,.97-1.22v-.39c.93-.03,1.87-.06,2.81-.06,0,.33,0,.67,.02,1,0,.83,.49,1.23,.96,1.23s.99-.42,.97-1.24c0-.35,0-.7-.02-1.04,.67-.03,1.32-.03,1.98-.06,0-.04-.02-.11-.02-.15,.16,.37,.49,.56,.83,.56,.5,0,1.02-.44,.98-1.22-.2-3.19-.44-6.4-.69-9.6-.08-1.17-.16-2.37-.26-3.54,.37,3.56,.8,7.12,1.42,10.63,1.14,1.23,1.62,.51,1.78-1.01,.35,1.84,.74,3.69,1.22,5.51-.76-.34-1.94-1.12-2.36,.19-.46,1.61,1.17,1.93,2.07,2.33,4.16,1.67,2.07-3.36,1.48-5.83-.64-4.1-1.42-8.18-2.19-12.28Z"/>
    <path class="cls-2" d="M80.74,25.89h-.02s.05-.09,.07-.13c.02-.02,.04-.04,.05-.07-.04,.07-.07,.13-.11,.2Z"/>
    <path class="cls-1" d="M313.47,305.87c-.1-.2-.2-.41-.3-.63,.05-.26,.05-.58-.03-.82-.3-.99-.56-2.03-.81-3.09-.75-3.65-1.35-7.31-1.78-11.24-.6-9.64-.29-19.62,.56-29.15,.11-1.16,.23-2.42,.34-3.62,.32-.46,.41-1.39,.73-1.87,.27-.6,.7-.95,.83-1.78,.01-2.24-1.07-.52-1.46,.77-.19-.34-.47-.07-.53,.41-.07,1.02-.26,1.92-.46,2.83-.05-.45-.17-.71-.37-.67,0-.41,.03-.84,.05-1.26,.09,.04,.18,.08,.28,.11,.19,.08,.36-.28,.38-.65,.05-.83-.36-.94-.65-1.02,0-.05,0-.08-.01-.14-.09-.53-.38-.57-.54-.29h-.07s-.1,0-.15,0c-2.91-.53-5.82-.54-8.73,.07-3.24-.15-6.49-.44-9.73,.04-2.24-1.23-4.75-.46-7.07-1.11-1.67-.63-3.37-.53-5.06-.43-.73,.04-1.46,.09-2.18,.07-.52,.22-4.06-.06-4.24,1.5-1.81-.23-3.63-.02-5.45,.07-3.45-.21-6.87-1.08-10.34-.74-2.52,.17-4.99,.77-7.52,.85-2.47,.57-5.01-.63-7.49-1.14-.98,.1-1.93-.25-2.89-.61-.89-.34-1.77-.67-2.67-.62-.13-.04-.27,.08-.34,.3h0c-.36-.07-.63,.12-.78,.66-.04,.53,.2,.97,.45,.91,.45-.04,.71,1.05,1.07,1.47,.07,.41,.24,.69,.4,.91,.5,2.49,1.65,4.1,2.79,5.17,1.06,1.17,2.1,2.48,3.18,3.52,.62,.23,2.83,5.06,3.06,2.82,.09,.18,.2,.34,.3,.52-.18,.5-.09,1.37,.3,1.31,1.08,7.42,.93,15.48,1.06,23.19,0,6.47,.52,12.87,.3,19.31,.13,14.4-1.13,28.97,.08,43.24-.22,7.97-.79,16.3-.06,24.22,.02,.14,.06,.25,.11,.33-.01,1.22-.03,2.43-.04,3.63-.1,5.75,.04,11.56,0,17.26-.16,7.52-.37,15.12-.18,22.67-.07,.22-.13,.48-.16,.69-.49,3.03-.42,6.25-.66,9.35-1,4.12-2.77,7.14-4.3,10.4-.72,.08-1.6,1.6-.97,3.08,.52,.59,.89-1.06,1.27-1.59,.05-.01,.11-.01,.15-.01,0,.03,0,.05,0,.08-.12,.15-.2,.45-.19,.75,.01,.49,.18,.71,.36,.71s.38-.22,.48-.56c2.38,.32,4.75,.16,7.14-.14,.89,.11,1.78,.32,2.66,.84,.19,.08,.37-.2,.4-.6,.02-.22,0-.45-.06-.63,1.66-.24,3.34-.45,5.01-.52,1.4,.2,2.8,.34,4.2,.41-.14,.08-.34,.07-.55,.05-.45-.03-.95-.06-.98,.92,0,.39,.17,.74,.36,.72,3.71-.7,7.42,.44,11.14,.49,.26,0,.52,.02,.77,.02,1.75,0,3.51-.08,5.27-.17,1.82-.09,3.65-.16,5.47-.15,2.18-.11,4.32-1.18,6.52-1.32,.1-.01,.21,.01,.33,.06,.29,.11,.6,.22,.68-.49,0-.1,0-.19-.01-.26,.41,.04,.83,.09,1.24,.1,.03,.22,.09,.42,.19,.54,.79,.59,1.63,.78,2.46,.91,2.91,.35,5.83-.46,8.73,.09,1.1,.15,2.21-.07,3.3-.43,.28,.45,.71,.56,1.05,.55,.61-.01,1.31,.33,1.86-.32,.27-.49,.31-1.2,.18-1.75,.05-.14,.07-.3,.06-.49-.17-1.33-.13-2.75-.2-4.11-.22-4.91-.27-9.79-.15-14.65,.17-.08,.28-.43,.26-.8-.04-1.35-.07-2.69-.1-4.04,.17-4.12,.43-8.22,.75-12.33,.05-.88-.53-1.27-.67-.38-.06,.84-.13,1.7-.19,2.57-.02-6.19,.22-12.37,.4-18.53,.33-.13,.32-.95,.28-1.51-.05-.67,.03-1.59-.28-2.01-.62-.48-.62,1.34-.64,2.19-.01,.39-.02,.77-.03,1.16h-.11c0-.68-.13-1.08-.56-.74-.12,.15-.19,.45-.18,.75,0,.1,0,.19-.01,.29-.19,.05-.3,.43-.3,.8,0,.78-.04,1.56-.11,2.35-.18,.96-.38,1.94-.55,2.88-.31,2.11-3.9,13.19-3.27,15.13-.68,2.25-1.43,4.41-2.23,6.52-.2,.53-.39,1.07-.58,1.6-.87,1.89-1.68,3.91-2.66,5.52-.21,.19-.41,.61-.34,1.1-.71,.93-1.46,1.73-2.25,2.42-.02-.46-.23-.93-.48-.64-1.27,1.38-2.47,2.97-3.9,3.5-.09,.05-.17,.12-.26,.19-.7,.12-1.8,.17-1.97,1.08-2.03,1.16-4.09,2.47-6.22,2.58-.15,.01-.32,.03-.48,.07-.6-.14-1.21-.21-1.81-.28-.2-.01-.34,.39-.34,.77v.07c-.38,.15-.77,.3-1.15,.43-.37-.12-.73-.26-1.08-.43-.03,.01-.07,.03-.09,.03-.02,0-.04,0-.06-.01-.27-.06-.54-.11-.81-.19-.48-.12-.95-.4-1.41-.75-.03-.03-.06-.04-.09-.07-.4-.31-.78-.67-1.15-1.09-.01-.01-.03-.03-.05-.05-.01,0-.03-.01-.04-.01-.64-.27-1.26-.77-1.81-1.6,0,0,0-.01-.01-.01-.26-.4-.49-.94-.67-1.55-.02-.05-.03-.11-.04-.16-.47-.67-.93-1.34-1.39-2.02h0c-.24-.35-.47-.71-.7-1.08-.16-.25-.32-.52-.48-.78-.06-.1-.13-.2-.18-.31-.01-.01-.03-.03-.03-.05,0-.01-.01-.03-.02-.03-.21-.38-.43-.76-.64-1.16-.02-.04-.04-.07-.06-.11-.09-.18-.17-.34-.26-.52-.11-.22-.21-.42-.32-.65-.1-.22-.2-.45-.3-.68-.22-.5-.41-1.02-.6-1.57h0c-.87-2.57-1.49-5.5-1.96-8.51-.32-1.97-.49-4.01-.63-6.08-.02-.31,0-.61,.07-.87,0-.14,0-.27-.01-.41-.01,.04-.02,.08-.03,.12-.03-.86-.06-1.7-.08-2.56-.01-.29-.03-.56-.05-.86,0-.08,0-.16-.02-.26-.07-.15-.14-.34-.17-.54-.07-.39-.15-.75-.21-1.14-.05-.34-.08-.68-.11-1.05-.03-.42,0-.78,.06-1.18,.01-.11,.04-.2,.06-.3-.03-.01-.08-.01-.13,.01-.14-2.96-.11-5.9-.02-8.85,.33-.05,.34-.81,.3-1.36-.09-6.01-.15-12.01-.04-18.06,.17-.07,.28-.42,.27-.77-.06-3.35,.04-6.7,.11-10.03,.05-2.22,.11-4.41,.22-6.61,.07-.76,.08-2.34-.48-1.99-.03-.26-.05-.5-.09-.76,.34-.01,.66-.05,.87,.02,3.4,.19,6.79-.74,10.08,1.3,.43,.12,1.09-.51,.83-1.6,.97,.09,1.87,.27,2.87,.41,.26,.14,.57-.2,.54-.84,.44,.03,1.83,1.44,2.26,.84,.36,.25,.71,.52,1.05,.82,.35,.56,.64,1.23,.91,1.96-.09,.11-.14,.3-.15,.62,0,.39,.14,.76,.34,.78,.28,.63,.54,1.28,.79,1.95,.43,1.72,.83,3.48,1.32,5.05,.13,.31,.27,.35,.38,.25,1.06,3.85,1.88,8,2.7,12.07,.3,2,.78,3.84,1.1,5.82,.11,.59,.2,1.36,.52,1.57,.33,.23,.58-.41,.56-1.06-.04-2.54-.33-5.03-.35-7.6,.21-15.3-.64-30.65-.39-45.93,.25,8.27,.05,16.6,.53,24.83,.14,2.54,.16,5.11,0,7.66-.23,1.33,.68,1.55,.68,.18,.23-3.78,.05-7.61-.21-11.41-.25-12.17-.13-24.42-.91-36.55-.05-.91-.69-.79-.68,.06-.09,.16-.15,.42-.15,.67-.02-.11-.05-.18-.09-.26-.05,.35-.09,.71-.14,1.07-.05,.42-.09,.86-.13,1.29h0c-.07,.68-.12,1.35-.18,2.01-.03,.37-.05,.73-.07,1.13,0,0,0,.01,0,.03,0,.08,0,.15-.01,.22-.02,.3-.04,.6-.06,.88-.02,.38-.05,.79-.07,1.18,.05,.04,.08,.11,.12,.18,.01,.01,.03,.04,.04,.07,.05,.1,.09,.19,.12,.3,.02,.07,.04,.14,.05,.2,.01,.07,.03,.14,.03,.2,.07,.57-.02,1.1-.13,1.62-.07,.38-.17,.75-.25,1.1h0c-.03,.19-.08,.37-.13,.54-.04,.18-.09,.37-.13,.56-.08,.34-.16,.71-.25,1.05-.06,.49-.13,.96-.2,1.45-.15,1.02-.35,2-.59,2.95-.04,.16-.08,.3-.11,.45-.03,.12-.07,.23-.09,.35-.04,.11-.07,.2-.11,.3-.19,.84-.42,1.66-.68,2.42-.4-.11-.45,.96-.6,1.51-.09,.37-.19,.94-.13,1.37-.13,.33-.26,.68-.4,1-.01,.04-.03,.08-.05,.12-1,2.1-2.13,3.92-3.32,5.57-.67,.77-1.44,1.01-2.18,1.42-1.3-.03-2.6-.09-3.89,.2-.02-.26-.09-.5-.22-.63-1.85-.57-3.7,.06-5.56,.11-1.54-.02-3.07-.39-4.62-.25-.16-.08-.44-.25-.74-.38-.07-.26-.22-.48-.44-.46-.01-.08-.03-.15-.04-.23-.01-3.51-.09-7.02-.18-10.54-.03-.57-.05-1.14-.06-1.71v-.08c-.01-11.23-.07-22.46-.03-33.7,.25-.5,.17-1.33,.25-2,.18-3.87,.18-7.95,.92-11.58,.69-3.46,1.62-6.7,2.53-9.94,.52-1.75,1.13-3.45,2.05-4.37,3.48-3.59,7.38-3.45,11.18-3.27,3.32-.46,6.53,.37,9.8,1.53,1.3,.47,2.5,1.83,3.79,2.45,1.1,2.02,2.58,2.76,3.62,4.9,.59,1.24,1.84,4.32,2.54,6.04,.77,2.38,1.38,5,2.17,7.37,1.37,2.74,2.66,5.79,3.76,9.03,.6,1.87,.89,4.22,1.83,5.52,.09,.23,.21,.49,.34,.63,0,.03,0,.05,0,.08,.37,.97,.98-.65,.51-1.24-.01-.07-.02-.12-.04-.19h0s0-.03,0-.04c-.01-.23-.04-.46-.07-.69,.79,1.89,2.05,4.13,2.25,4.78,.14,.29,.35,.3,.49,0,.13-.3,.13-.8,0-1.1Zm-12.67-50.46c.08,0,.15,0,.24,.01-.09,.05-.17,.09-.26,.13-.12,.05-.23,.09-.35,.13-.5,.02-1.02,.05-1.53,.02,.63-.09,1.26-.31,1.89-.3Zm-22.7,.33c-.28,.04-.52,.05-.68-.03-.19-.03-.4-.06-.58-.13,.42,.07,.85,.13,1.26,.16Zm-7.44,174.07h0c0-.16-.01-.3-.04-.44,.26,.44,.51,.86,.75,1.28-.26-.26-.49-.53-.71-.85Zm-30.08-169.4c-1.05-1.16-2.21-2.09-2.87-4.32,1.16,1.49,2.28,3.15,3.37,4.9-.17-.19-.32-.38-.49-.57Zm66.57,150.19c.03-.26,.12-.57,.21-.94-.12,.62-.25,1.22-.4,1.81,.05-.2,.09-.43,.13-.65,.02-.07,.04-.14,.06-.22Zm-4.06,13.92c.03-.19,.03-.39-.01-.57,.17-.41,.35-.8,.51-1.22-.17,.6-.34,1.19-.5,1.79Zm.45,20.63c-.16-.04-.32-.08-.48-.12,.29-.03,.58-.04,.86-.05,.22,0,.44,.02,.65,.04-.34,.05-.69,.11-1.03,.13Zm6.82-.95c0-.9,0-1.82,0-2.72,.04,.9,.1,1.8,.16,2.69-.05,0-.11,0-.15,.03Zm-26.3-5.21c-.05,.05-.11,.09-.16,.15-.09-.01-.19-.03-.28-.04,.15-.04,.3-.08,.44-.11Zm-10.44-4.79c.39,.56,.77,1.05,1.16,1.53-.32-.03-.64-.08-.96-.15-.07-.2-.18-.34-.33-.27-.03,0-.04,.01-.07,.04-.28-.35-.54-.67-.81-.98-.03,0-.05-.04-.07-.1-.03-.04-.07-.08-.11-.12-.03-.05-.06-.11-.09-.15-.1-.18-.24-.35-.37-.45-.29-.41-.56-.87-.81-1.47,.79,.87,1.59,1.9,2.45,2.13h0Zm13.01-77.03h0c-.14-.59-.28-1.1-.42-1.58,.81,1.92,1.53,4.24,2.08,6.54-.5-1.74-1.07-3.36-1.66-4.96Zm4.51-43.44v.05s0-.07,0-.1c0,.01,0,.03,0,.04Zm.04,5.62c-.11,1.21-.24,2.42-.39,3.62-.03,.03-.05,.07-.07,.12,.13-1.17,.3-2.36,.43-3.55,.01-.07,.02-.12,.03-.19Zm-15.82,27.54s-.01,.07-.01,.1c-.06,0-.11-.01-.17-.03,.06-.03,.12-.05,.18-.07Zm35.4-46.99c-.03-.3-.15-.53-.3-.56-.21-2.48-.38-5.01-.49-7.49,0-.22,0-.44,0-.64,.4,3.82,1,7.62,1.84,11.14-.36-.8-.73-1.59-1.05-2.45Z"/>
    <path class="cls-1" d="M363.62,430.05c.52-.02,1.09-.1,1.29-.61-.19,.12-.38,.21-.57,.3-.24,.1-.48,.2-.71,.31Z"/>
    <path class="cls-1" d="M403.48,362.54c-.09-.19-.2-.22-.3-.13-.38,.21-.8,.22-1.2,.14-.9-1.24-2.05-.97-3.1-.61-.97,.11-1.98,.37-2.95,.5-2.3-.19-4.6-.06-6.91,.41-2.04,.25-4.05-.41-6.09-.1-1.98,.88-3.96,.53-5.93,.29-2.63,0-5.31,.46-7.91-.34-1.88-.08-3.73-.23-5.53-1.29-.24-.1-.77-.03-1.29,.2-.99,.46-2,1.46-1.22,2.99,.31,.07,.62-.16,.93-.34,.1,.87,.64,1.58,1.01,1.73,.45,.39,.79,1.08,1.21,1.7,1.31,2.25,3.11,1.93,4.59,3.41,.18,.07,.41,.43,.62,.29,1,1.28,2.06,2.34,3.05,3.67,1.07,1.44,1.93,3.52,3.02,4.92,.35,.43,.72,.82,1.1,1.11,.87,3.43,.73,7.67,.61,11.64-.15,4.68-.33,9.3-.73,13.94-.28,4.29-.88,8.51-2.16,12.05-.18,.47-.39,1.06-.28,1.64-1.29,2.91-2.73,5.63-4.35,7.56-1.5,1.35-3.08,2.51-4.67,3.12-.85,.57-1.67,1.36-2.56,1.15-.47-.02-.97-.11-1.46-.21-.99-.79-2.62-.96-3.22-1.44,.62,.02,1.25,0,1.87-.05-.19-.04-.39-.09-.58-.14-.27-.02-.55-.04-.83-.07-.34-.02-.67-.11-1-.17-.27-.05-.53-.13-.79-.21-.16-.04-.33-.09-.49-.14-.11-.04-.23-.05-.34-.11-.17-.1-.3-.22-.42-.48-.09-.19-.15-.42-.17-.7-1.39-.78-2.68-2.24-3.92-3.78-2.9-2.9-5.54-6.65-7.61-11.91-1.37-2.89-2.62-6-3.45-9.82-.35-1.31-.68-2.71-1.18-3.78-.08-.11-.19-.09-.28-.06-.54-2.03-.98-4.19-1.47-6.29,1.14,4.81,2.87,8.71,4.25,13.19,.17,.5,.51,1.33,.79,.58,.08-.23,.09-.55,.03-.8-.72-2.38-1.58-4.53-2.24-7.01-2.3-8.57-4.04-17.91-5.41-27.43-.64-10.16-1.09-20.39-1.29-30.69-.22-6.86,.24-13.77,.91-20.59,.03-.64,.24-2.27,.33-3.72,.01-.26,.03-.5,.04-.74,.01-.2,.02-.38,.05-.55,.09-.92,.28-1.9,.4-2.82,.8-5.2,2.01-10.12,3.63-14.45,.91-2.77,1.53-5.76,2.52-8.44,.97-2.65,2.27-4.61,3.43-6.87,.14,.12,.31-.08,.43-.27,.95-1.57,1.73-3.55,2.69-5.12,3.19-5.12,6.98-7.27,10.69-9.62,1.95,.75,4-.91,5.92,.28,1.91,1.08,4.03,.81,5.71,3.18,.64,.69,1.4,.63,2.07,1.15,.08,.1,.16,.2,.25,.29,.03,.05,.06,.08,.09,.11,.45,.53,.9,1.06,1.35,1.59-.05,.34,.03,.72,.18,.83,.2,.29,.34,.69,.51,1.1,1.22,3.73,2.74,6.88,4.5,9.43,1.46,3.33,2.59,7.39,4.14,10.62,.29,.64,.71-.47,.44-1.04-.94-2.17-1.84-4.41-2.67-6.79,.5,1.23,.99,2.49,1.5,3.69,1.53,3.46,3.04,6.93,4.22,11.01,.87,2.82,2.14,4.95,2.96,7.85,.29,.94,.55,1.8,.84,2.77,.16,.45,.28,1.35,.62,1.14,.12,.4,.25,.8,.38,1.2,.06,.16,.11,.32,.17,.47,0,.38,.01,.75,.02,1.13,0,.69,.33,.83,.51,.47,.21,.35,.61-.1,.53-.82-.05-.15-.1-.31-.15-.46,.26-.89,.22-2.86-.29-2.39-.02-1.79-.06-3.57-.05-5.35,0-.44-.01-.88,0-1.32,0-.02,.01-.06,.02-.1,.15-1.49,.07-3.02,.11-4.52,0-.71,0-1.42,0-2.13,0-.02,0-.04,0-.06,.09-2.65,.23-5.29,.36-7.95,0-.26-.06-.5-.16-.6,.11-2.3,.28-4.59,.53-6.87,.05-.55,.12-1.31,.18-1.93,0-.94,.59-3.21-.03-3.51,.46-3.39,.76-6.86,1.34-10.2,.24-.11,.47-.28,.69-.55,.3-.4,.93-.95,.67-1.86-.12-.36-.35-.3-.48,0-.19,.35-.4,.59-.61,.77,0-.06,.02-.11,.02-.17,.1-.67-.3-1.21-.52-.62-.25-.33-.57,.37-.47,.93-.02,.11-.04,.21-.05,.32h0c-.2,.05-.39,.12-.58,.2-.5,.24-.98,.59-1.47,.95-.01,0-.02,.01-.03,.01-.08,.02-.17,.04-.25,.06-.05-.24-.15-.42-.28-.4-1.43,.64-2.75-.08-4.09-.85-.09-.03-.18-.06-.27-.08,.01-.07,.02-.15,.02-.23,.03-.75-.62-1.01-.86-.59-.05,.18-.08,.37-.11,.53-.75-.25-1.5-.56-2.2-1.1,.04-.29,.04-.62-.03-.88-.22-1.04-.81-.89-1.25-.5-.29-.43-.56-.93-.81-1.53,0-.33-.12-.65-.28-.66-.25-.26-.42-.77-.68-.97-.17-.08-.34,.17-.39,.53-.08,.84,.41,1.04,.61,1.56,.01,.04,.03,.06,.04,.1-.73-.49-1.46-.95-2.19-1.42-2.08-2.11-4.22-4.32-6.57-4.92-.38-.06-1.74-.9-2.21-.28-.96-.15-1.9-.73-2.84-1.09-2.05-.27-4.1-.53-6.17-.1-3.59,.46-7.34,.1-10.74,3.58-1.19,.93-2.51,.89-3.68,2.1-1.56,1.39-3.26,1.83-4.75,3.57-1.9,2.58-3.49,5.75-5.57,7.8-2.74,3.71-5.11,8.48-7.46,13.24-1.97,4.02-3.45,8.95-5.16,13.47-1.17,2.61-1.91,5.86-2.66,9.05-.55,2.42-1.38,4.52-1.91,6.97-.37,1.77-.41,3.63-.64,5.49-.24,2.17-.73,4.2-.96,6.38-.25,2.56-.14,5.25-.42,7.85-1.02,10.23-1.34,20.81-.54,30.96,.04,4.77,.52,9.33,1.14,13.82,.23,2.14,.42,4.31,.76,6.34-.05-.03-.1,0-.16,.06-.36,.46-.11,1.51,.08,2.02,.47,1.95,.93,3.92,1.41,5.87,.46,2.03,1,3.98,1.49,5.97,.26,2.19,.78,4.15,1.24,6.17,1.47,5.9,3.92,10.26,6.13,14.81,1.58,2.86,3.5,4.65,5.23,7.07,1.74,2.6,3.68,4.55,5.71,5.97,.72,2.12,6.42,3.54,7.36,4.27,2.47,1.05,4.72,3.61,7.29,3.82,.26,.07,.51,.12,.75,.13,.8,.03,1.59-.26,2.38-.6,1.09,.25,2.18,.44,3.25,.77,3.95,.07,8.17-1.42,12.1-3.05,1.41-1.02,2.89-1.44,4.3-2.37,.16-.13,.31-.33,.37-.69,1.41-.61,2.89-.86,4.17-2.42,.51-.59,1.05-1.01,1.58-1.43-.2,.3-.31,.67-.29,1.09,.06,.33,.24,.51,.4,.34,.56-.67,1.16-1.1,1.79-1.28,1.62-.48,3.2-1.28,4.78-2.24,1.25-.3,2.64-.94,3.77,.31,.46,0,.45-1.23,.09-1.51-.36-.85-.68-1.86-.8-3.02-.13-2.32,.23-5.07-.01-7.37,.06-5.96,0-11.93,.29-17.9,.01-.23,.02-.46,.03-.69,0-.44-.02-.89-.02-1.33,0-1.04-.01-2.07-.01-3.11,0-.39,0-.8,0-1.21-.03-.57-.06-1.15-.09-1.73-.03-.63-.06-1.27-.08-1.91-.03,.57-.05,1.12-.08,1.67-.07,1.3-.14,2.61-.19,3.91,0-5.99,.05-12.08,.72-17.89,.8-3.32,2.24-6.14,3.86-8.46,.07-.11,.15-.22,.23-.31h0c1.25-1.63,2.63-2.84,3.88-4.48h0c.23-.23,.46-.44,.68-.64,.2-.05,.29-.42,.28-.78,.14-.23,.28-.47,.41-.72,.09-.18,.17-.36,.22-.58,.18-.04,.35-.1,.52-.17,.29-.09,.42-.85,.23-1.27Zm-11.31,43.29v.1s0-.06,0-.1h0Zm-18.63-30.88c.24,.28,.48,.57,.73,.83,.11,.1,.23,.02,.32-.15,.51,1,.95,2.18,1.39,3.32-.9-1.04-1.63-2.67-2.44-4Zm-46.69,39.63h0s-.01-.01-.02-.03c0,.01,.01,.03,.02,.03Zm8.4-28.12c.04,.22,.07,.43,.1,.66-.38-1.21-.44-2.74-.61-4.24,.15,1.2,.32,2.4,.5,3.58Zm1.86,3.52c-.11-.41-.21-.82-.31-1.24-.1-.4-.2-.78-.3-1.17-.65-2.59-1.09-5.43-1.43-8.31,.6,3.65,1.31,7.21,2.04,10.73Zm39.13-111.25c-.3-.71-.58-1.56-.87-2.4,.02,.03,.04,.06,.06,.09,.06,.14,.14,.19,.23,.17,.49,.86,.96,1.75,1.44,2.58,.63,1.08,1.28,2.12,1.91,3.21-.28-.44-.57-.82-.88-1.13-.18,.02-.29,.32-.31,.64-.58-.93-1.13-1.9-1.58-3.16Zm3.6,5.17c.73,1.37,1.4,2.86,1.95,4.61-.62-1.51-1.25-3.19-1.95-4.61Zm-47.58,142.16c-.35-.46-.7-.85-1.06-1.27-2.51-2.87-4.41-7.56-6.39-11.86,2.53,4.28,4.91,9.03,7.74,12.41-.14,.54,.05,1.06,.23,1.38-.18-.22-.35-.44-.52-.66Zm22.42,16.1c-.54-.03-1.09-.14-1.64-.31,.41-.02,.81-.06,1.22-.04,.45,.02,.9,.09,1.35,.27-.25,.06-.59,.09-.92,.08Z"/>
    <path class="cls-1" d="M513.53,436.89c-2.12-.78-3.82-3.47-5.86-4.77-1.98-1.51-4.01-2.79-5.79-4.95,.83-.21,.1-3.57-.53-1.9-2.07-2.16-3.63-5.5-5.17-8.8-.43-1.43-.9-2.85-1.39-4.27v-.03c-.19-1.16-.71-2.07-1.06-3.09-.02-.04-.03-.07-.05-.09-.71-2.07-1.4-4.14-1.99-6.26-.84-2.72-1.49-5.62-2.35-8.32-.19-.52-.38-1.53-.81-1.34,0-.01,0-.01,0-.03-.69-2.64-1.36-5.32-1.88-8.09,.95-.27-.18-3.05-.43-3.81-.37-.26-.6-.14-.7,.25-.41-1.65-.8-3.29-1.21-4.94-.32-1.3-.63-2.62-1.02-3.88-.08-.25-.24-.41-.4-.37-.25,.07-.38,.55-.34,.96-1.08-4.86-2.28-9.64-3.08-14.68-.28-1.49-.56-2.98-.92-4.41-.08-.32-.26-.53-.46-.45-2.86-12.18-5.39-24.57-8.06-36.88-.03-.32-.14-.49-.26-.54-.42-1.98-.88-3.94-1.32-5.92,.01-.24-.05-.48-.15-.65-.18-.82-.36-1.65-.52-2.5,.01-.39,0-.81-.03-1.13-.15-.88,.06-3.26-.71-3.04,0-.07-.02-.13-.03-.2-.02-.11-.04-.23-.08-.32-2-12.08-4.45-23.91-6.78-35.81-1.72-8.78-3.38-17.6-4.75-26.6,.3-.45,.1-1.45-.31-1.35-1.26,.72,.42,6.06,.55,7.86,.06,.37,.12,.74,.19,1.12-.13-.62-.26-1.25-.38-1.89-.48-2.48-1.03-4.97-1.29-7.57-.02-.36-.19-.68-.4-.68-.24,0-.41,.38-.4,.78,.05,.65-.13,1.57,.23,1.98,0,.01,0,.03,0,.04-.09-.07-.2-.06-.31,0l-.05-.2c.06-.36,.06-.73,.08-1.09,0-1.3-.87-.96-1.03,.02-.76-.42-.87,1.99-1.14,2.84-.74,1.63-.88,4.11-1.36,6.05-.2,1.09-.42,2.2-.63,3.29,.19-1.88,.18-3.26-.17-3.62,0-.07,0-.15,0-.21,.11-1.12,.11-2.17-.35-2.25-.35,0-.42,.68-.42,1.19,0,.08-.01,.17-.03,.25-.01,.04-.03,.08-.04,.12-.25,1.24-.21,2.62-.42,3.88-.09,.69-.24,1.43-.28,2.16-.39,2.65-.85,5.28-1.32,7.89-.23-.21-.49,.07-.56,.5-.24,1.67-.49,3.33-.71,5-.01,1.17-.84,3.35,.03,3.96-.58,2.99-1.17,5.98-1.79,8.94-.46,.31-.48,1.45-.68,2.17-.71,3.56-1.41,7.12-2.13,10.67-1.9,8.72-2.6,18.12-4.84,26.62-.19-.04-.39,.22-.44,.56-.55,4.26-1.33,8.42-2.27,12.46-2.02,8.81-3.77,17.82-5.51,26.82l-.52-.33c.03-.39-.07-.82-.33-.88-.3-.06-.59-.11-.88-.22-.13-.07-.27-.14-.4-.22-.08,.04-.17,.05-.25,.06-.11,0-.23-.02-.34-.1-.1-.05-.19-.12-.28-.17-.22-.13-.45-.24-.67-.31-.33-.1-.66-.17-.99-.26-.34-.1-.67-.26-.99-.46-.64-.38-1.24-.95-1.78-1.62-.48-.59-1.01-1.32-1.37-2.21-.27-.4-.5-.87-.66-1.46-.68-4.62-.21-10.18,1.38-14.14-.02,.07-.04,.13-.04,.2-.08,.36-.15,.72-.22,1.09,.03-.11,.07-.2,.09-.31,.05-.15,.09-.31,.14-.45,.19-.6,.38-1.19,.58-1.77,.11-.32,.23-.64,.34-.96,.07-.16,.12-.32,.18-.48,0-.03,.02-.05,.04-.09,.12-.29,.23-.59,.36-.87,.26-.6,.52-1.19,.79-1.76,.18-.4,.37-.79,.57-1.18,.16-.31,.32-.61,.49-.92,.05-.11,.1-.19,.15-.27,.04-.09,.1-.19,.15-.28,.22-.39,.46-.75,.75-.87,.37-.83,.72-1.68,1.03-2.54,.18-1.76-.81-.99-1.34-.75-1.47,.65-3.04,.93-4.49,1.83-.95,.25-1.79,.93-2.57,1.82-.03-.23-.15-.41-.38-.54-.18,0-.32,.22-.37,.5-.42,.99-.89,1.94-1.36,2.9-.15,.2-.29,.41-.44,.6-.29,.12-.58,.22-.87,.31-.28,.19-.3,.89-.12,1.25-1.66,3.46-2.79,8.02-2.74,12.65-.41,2.89-1.14,10.03,.36,11.98,.01,.01,.02,.01,.03,0,.16,.6,.36,1.18,.58,1.72,.87,5.18,3.35,8.98,6.27,10.62,2.08,1.9,4.04,4.3,6.45,4.62,.16,.03,.45,.1,.81,.22-.46,2.27-.92,4.53-1.35,6.82-.16,.01-.3,.2-.35,.47-.54,2.57-1.14,5.09-1.73,7.62-.97,4.24-1.91,8.49-2.8,12.8-.4,2.08-.76,4.17-1.48,5.99-1.05,3.53-2.14,7.72-2.06,11.82-.13,.63-.22,1.27-.26,1.92-.34,1.11-.71,2.2-1.08,3.27-1.14,3.26-3.4,4.62-4.89,7.31-1.24,2.3-2.27,4.24-3.66,6.2-.12-.01-.23-.01-.35-.01-.61-.02-1.18,0-1.8-.12-.39-.36-1.03-.5-.99,.59,.14,1.16,1.03,.9,1.55,1.02,.16,.01,.33,.01,.48,.02-.48,.26-.99,.22-1.5,.17-.43-.05-.87-.09-1.3,.08-.22,.11-.5,.26-.57,.71-.25,1.28,1.25,1.45,2.7,1.43,.05,.07,.11,.12,.17,.18,.2-.03,.4-.1,.61-.2h.08c.68-.02,1.25-.05,1.5,.04,4.85,.62,9.75,1.22,14.57,.02,4-.17,7.99-.04,11.99,.45,0,.01,.02,.01,.03,.03,0,0,.01-.01,.02-.01,.89,.1,1.78,.24,2.67,.38h.06c.19,0,.36-.3,.39-.67-.02-.86-.48-.99-.98-1.03-.08-.68-.62-1.1-.85-1.6-.3-.49-.6-.98-.92-1.44-.33-.49-.78,.25-.61,.9-.13-.08-.27-.17-.4-.26-.03-.04-.06-.09-.1-.16,.13-.21,.24-.47,.34-.75,.15-.8-.22-1.37-.51-1.25-.07-.08-.14-.12-.22-.13-.39-.02-.77-.05-1.16-.06,0,0,0,0,0-.01-.65-.79-1.21-1.4-1.43-1.56-.31-.14-.9-.9-1.36-1.13-.67-1.02-1.31-2.1-1.93-3.2-1.21-5.09-1.09-10.87-.89-16.46,.19-.07,.33-.38,.4-.72,.94-3.68,1.67-7.5,2.42-11.32,.94-5.14,2.13-10.13,3.02-15.31,.39-2.82,.9-5.57,1.55-8.2,.05,.24,.15,.42,.32,.5h.05c.13,0,.27-.14,.33-.34,.27-1.04,.43-2.16,.65-3.24,.04-.2,.07-.39,.12-.59,3.38-.51,6.76,.28,10.16,.47,3.19,.33,6.38-.03,9.58,.29,2.76,.54,5.52,.97,8.3,.94,1.88-.07,3.75-.14,5.6,.58,.15,.15,.31,.28,.46,.41,.05,.04,.1,.07,.15,.07,.09,0,.18-.05,.24-.16,.06,.03,.11,.04,.17,.07,.03,.53,.18,.97,.48,.91,1.88,8.46,3.03,17.32,4.94,25.78,.84,3.56,1.7,7.09,2.53,10.65,.09,.76,.18,1.53,.27,2.29h0c-.06,.41-.04,.88-.05,1.28,.08,2.06-.09,4.27,.15,6.25-.07,2.42-1.3,4.03-1.82,6.24-.33,1.28-1.02,2.63-.91,4.12-.24,.31-.46,.66-.68,1l-.43,.7c-.18,.32-.37,.64-.55,.96-.21-.04-.42-.09-.62-.17-.19,.37-.37,.75-.55,1.12-.04,.08-.08,.16-.12,.24-.11,.23-.21,.44-.32,.67-.13,.24-.24,.48-.36,.73v.03c-.08,.19-.15,.37-.21,.56,.26-.12,.52-.35,.79-.41-.04,.15-.07,.31-.08,.48-.33,.34-.24,1.35,.14,1.45,.29,.1,.6,.11,.89,.13,.41,.02,.82,.06,1.23,.11,2.58,.26,5.16,.78,7.75,.6,5.31-.51,10.58-.9,15.91-.01,2.68-.26,5.06-1.04,7.95-1.08,2.83,.32,5.65-.09,8.42-1.03,.33-.35,.21-1.32-.16-1.44l.04-1.42c.25,.02,.49,.05,.73,.07,.11,.11,.24,.17,.37,.17,.07,0,.14-.03,.2-.09,.15,.03,.3,.04,.45,.06,.04,.01,.08,.03,.12,.03,.19,0,.32-.27,.36-.58,.1-.16,.14-.4,.12-.64-.05-.52-.38-1.05-.92-.8Zm-22.26-29.11c.2,.53,.41,1.05,.61,1.56-.04,.09-.07,.21-.09,.35-.2-.57-.39-1.15-.58-1.72,.01-.05,.04-.12,.06-.19Zm4.48,10.47c-.17-.25-.32-.53-.48-.81-.43-.99-1.03-1.92-1.56-2.94-.29-.62-.56-1.26-.82-1.91,0-.01-.02-.03-.02-.05,0-.01,0-.03,0-.03-.14-.49-.25-1.01-.3-1.55,.89,2.08,1.84,4.1,2.8,6.07,.12,.41,.25,.81,.39,1.22Zm-22.54,17.87s-.05,.03-.07,.04h0s.04-.03,.07-.04Zm3.84-12.92c0,.05,.02,.12,.03,.17,0,.01-.01,.03-.02,.03,0-.08,0-.15,0-.2Zm-15.44-140.12c.49,2.75,1.2,5.39,1.46,8.25-.69-3.32-1.37-6.64-2.03-9.98,.18,.6,.36,1.17,.57,1.72Zm-25.35,77.63c-.43-.08-.74-.02-.94,.14,.18-1.39,.39-2.74,.7-4.06,.04-.43,.48-2.05,.86-3.73h0c-.06,.44-.12,.88-.18,1.33-.05,.39,.06,.82,.29,.94,.21,.1,.44-.15,.49-.54,1.13-8.27,2.73-16.31,3.88-24.55,.07-.55,.19-1.69,.1-2.46,.97-4.57,2.04-9.09,2.98-13.68,.91-5.82,1.71-11.71,2.77-17.47,.45-.18,.43-1.13,.56-1.76,.11-.72,.21-1.44,.31-2.16,.14,1.32,.33,2.6,.5,3.91,1.44,11.28,3.97,22,6.18,32.85-.2,.68,.05,1.46,.18,2.1,.52,2.44,1.08,4.85,1.62,7.28,1.67,7.68,3.19,15.47,4.97,23.06-3.05,.65-6.16,.78-9.24,.49-3.15,.13-6.33,.72-9.48,.03-2.2-.47-4.37-1.31-6.58-1.71Zm24.06-86.07c.27,.96,.53,1.92,.67,2.99-.24-.98-.46-1.98-.67-2.99Zm-.43-2.14c-.11-.6-.22-1.2-.33-1.79h0c-.81-4.76-1.77-9.43-2.74-14.11-.09-.65-.19-1.29-.29-1.94,1.35,5.71,2.74,11.39,3.64,17.39-.14,.05-.24,.23-.28,.45Zm1.66,7.33c-.08-.23-.13-.42-.16-.58-.11-.41-.21-.82-.31-1.23,.11,.28,.31,.34,.47,.22,.12,.6,.24,1.2,.35,1.81-.11-.16-.23-.24-.35-.21Zm-38.5,158.89c-.34,.04-.69,.06-1.03,0,.34-.02,.69-.03,1.03,0Zm-5.26,1.6s.02,.04,.02,.07c-.22,.02-.42,.04-.64,.06,.19-.13,.37-.27,.56-.38,.02,.08,.04,.16,.06,.25Zm-10.41-.05c-.4,0-.8-.02-1.21-.02,.04-.05,.1-.09,.14-.13,.36,.04,.71,.09,1.07,.15Zm11.56-.7s.11,.01,.19,.03c-.09,.15-.12,.36-.13,.57-.1,.03-.22,.06-.32,.07,0-.2-.04-.41-.15-.64,.03-.01,.06-.04,.1-.04,.1,0,.2,0,.31,.01Zm4.44-11.36c-.04-.51-.07-1.02-.1-1.53,.09,.64,.18,1.26,.27,1.89-.05-.12-.11-.24-.17-.36Zm-5.56-91.32h0s0,0,0,0Zm5.31-11.51c-.21,.51-.43,1-.65,1.51-.5-.3-1.05-.58-1.6-.69,.75-.26,1.52-.47,2.24-.82Zm-3.47,44.87c1.65,.96,3.37,1.62,5.08,1.99-.04,.2-.08,.4-.13,.61-1.73-.37-3.4-1.16-4.95-2.61Zm56.86,57.15c-.07,.29-.13,.57-.2,.85,.05-.36,.09-.71,.13-1.07,.01-.04,.03-.07,.04-.11,0,.11,.02,.21,.02,.32Z"/>
    <path class="cls-1" d="M589.75,401.97c-.03-.17-.06-.36-.09-.54,.02,.02,.04,.01,.06,.01,1.17-.43-.84-7.47-1.14-9.11-1.6-6.5-3.92-12.06-6.27-17.41-.45-1.1-.91-2.13-1.41-3.12-.33-1.09-.66-2.19-.99-3.3-.24-.73-.6-.5-.73,.02-.25-.45-.51-.88-.76-1.3h.04c.09-.01,.18-.09,.25-.24,.65-1.79-2.5-6.25-3.2-7.62-4.72-8.35-9.84-15.49-15.5-20.2-1.28-1.25-2.53-2.66-3.76-4.14,0-.02-.02-.02-.03-.03-1.72-2.52-3.39-5.26-5.16-7.64-3.64-4.76-7.35-9.22-10.66-15.11-2.67-4.75-5.45-9.32-7.86-14.66,.1-.2,.15-.53,.13-.82-.32-2.05-.76-4.08-1.08-6.16-.84-4.63-1.58-9.68-1.88-14.69-.4-6.58-.04-13.05,1.82-18.34,1.95-5.7,3.83-12.31,6.86-15.65,.33-.17,.89,.07,.89-.98,2.2-.87,4.59-.59,6.84-.41,.74,.23,1.49,.43,2.24,.77,.2,.75,.72,.97,1.11,1.19,3.24,2.18,6.01,6.98,8.72,11.39,.39,2.09,1.49,3,2.13,4.72,.12,.25,.16,.34,.3,.64,1.25,2.89,2.53,5.72,3.85,8.48,.02,.98,.25,2.19,.74,1.69,1.02,2.45,2.06,4.74,3.11,7.16,1.08,2.27,2.38,4.06,3.49,6.27,3.15,5.76,5.03,13.83,7.97,19.99-.03,.94,.42,1.68,.71,2.31,.37,.44,.65,1.22,1.08,1.35,.86-.16,.27-2.44-.04-3.39-.38-1.28-.72-2.62-1.01-4,.52,.81,1.05,1.59,1.58,2.34,.06,.06,.12,.08,.18,.07,.19-.02,.37-.35,.39-.79,.02-.3,0-.6-.07-.89-.09-.31-.19-.62-.3-.89,.08-.61-.01-1.41-.34-1.6-2.04-6.52-3.14-13.79-3.65-21.36-.66-7.68-1.31-15.48-1.43-23.21,.21-3.96,.51-7.9,.82-11.82,.14-1.17,.2-4.81-.77-3.57-.1-.17-.18-.23-.27-.22l-.02-.19c.66-.12,1.38-.17,2.06-.18,.21,.03,.42-.16,.51-.6,.27-1.4-.5-2.57-1.11-2.44-.17-2.18-1.38-.25-1.93,0-1.51,1.27-3.03,2.57-4.6,3.53-.12,.08-.2,.28-.24,.53-.18,.12-.36,.26-.55,.39-.06-.01-.12-.02-.17,.02,.13-.19,.2-.53,.18-.9-.21-1.79-.9-.62-1.3-.07-.44,.43-.99,.18-1.45-.32-.78-.84-1.6-1.53-2.42-2.1-.05-.12-.12-.22-.21-.28-1.68-1.96-3.62-1.69-5.42-2.72-3.09-1.3-6.09-3.26-9.04-5.64-1.31-.65-2.61-.43-3.91-.22-1.12,.2-2.24,.38-3.37,.03-1.08-.32-2.11,.14-3.13,.59-.89,.39-1.79,.77-2.73,.67-2.6-.66-5.08,1.68-7.47,3.23-.58,.34-1.24,.39-1.87,.5-.02-.14-.07-.29-.11-.43-2.68-3.96-9.31,7.04-11.46,10.52-1.59,2.94-3.31,6.04-4.06,10.39-1.48,3.21-2.59,7.17-3.67,11.04-.24,.87-.46,1.77-.65,2.7,0,.02-.01,.04-.01,.07-.79,3.12-1.29,6.59-1.58,10.17-.91,11.28-1.56,23.93,1.15,34.96,1.57,4.86,3.24,16.52,5.91,18.08,2.56,7.83,6.24,13.29,10.12,17.7,2.88,4.7,5.93,8.89,8.76,13.68-2.37,1.57,5.33,10.67,6.19,12.21,5.07,7.67,10.46,13.93,15.93,19.98,2.76,3.88,5.21,9.27,8.15,12.51h.06c.25-.03,.38-.43,.38-.89,2.06,3.42,4.24,6.57,6.1,10.52,1.27,2.92,2.23,6.35,3.36,9.53-.02,.12-.03,.27-.02,.42,.02,.51,.22,.82,.42,1.02,.19,.33,.33,.71,.46,1.17,1.39,5.5,.3,11.52,.4,17.31-.03,6.16-2.48,9.64-3.97,14.13-.71,2.08-1.29,4.37-2.04,6.45-1.99,3.7-4.62,6.23-7.32,6.97-.29,0-.63,.34-.57,1.11,.04,.65,.31,.9,.72,.91-3.08,1.41-6.21,2.35-9.44,.54-3.39-1.38-6.83-2.83-9.8-7.12-2.09-2.8-4.06-5.83-6-9.16l.22-.62c.49,.8,1.71,2.58,2.34,2.52,.29-.03,.47-.43,.38-1.52-2.03-4.17-4.53-7.21-6.16-12.33-1.49-4.17-2.93-8.49-4.26-12.94,.11,.13,.22,.26,.33,.39,.06,.05,.12,.08,.18,.07,.12-.01,.24-.16,.31-.38-.14-.39-.29-.78-.44-1.17-.07-.19-.14-.37-.21-.56-.15-.35-.29-.73-.45-1.08-.37-.58-.72-1.2-1.03-1.85-.01-.03-.02-.05-.03-.09-.2-.6-.35-1.29-.52-1.97-.21-.53-.43-1.07-.65-1.61-.27-.66-.51-1.38-.77-2.07-.42-1.14-.84-2.26-1.26-3.4,.01,.1,.03,.21,.04,.31-.08-.31-.17-.62-.26-.93-.14-.39-.27-.8-.4-1.19-.26-.77-.5-1.55-.76-2.32-.18-.56-.37-1.11-.54-1.67-.4-1.23-.79-2.47-1.17-3.72-.17-.58-.35-1.18-.52-1.76-.3-.96-.59-1.93-.88-2.89-.26-.89-.5-1.82-.75-2.71-.46-1.64-.93-3.29-1.36-4.99-.37-1.42-.72-2.89-1.04-4.39,.9,5.26,1.93,10.46,3.08,15.5-.11-.34-.23-.68-.34-1.02-.29-1.31-.57-2.62-.83-3.95-.09-.43-.19-.98-.35-1.51-.1-.36-.27-.48-.43-.43,.09-.4,.04-.92-.13-1.25-1.23-2.71-1.4-7.03-2.24-10.34-.1-.5-.34-.85-.58-.67-.23,.18-.34,.79-.24,1.29,.39,1.99,.75,3.99,1.12,6-.26,.32-.29,.89-.21,1.46,0,.88,.2,2.02,.22,2.79,.04,.33,.07,.64,.11,.96-.06,.16-.09,.4-.07,.68,.05,8.97,1.36,18.03,2.06,26.97,.6,8.07,1.02,16.23,1.89,24.26,.65,4.74,.79,9.51,1,14.33,.19,5.28,.87,10.53,.71,15.79-.34,1.48-.71,3.52-.13,5.08,.14,.25,.27,.36,.39,.35,.36-.04,.61-1.06,.58-1.89,.06-.96,0-1.99,.07-2.91,.45-1.36,1.2-2.02,1.95-2.41,2.28-1.26,4.78-1.35,7.2-.48,.51-.03,1.89,1.22,2.35,.47,1.13,.65,2.26,1.33,3.38,1.97,.33,.14,.67,.32,.99,.5,.05-.22,.13-.38,.22-.51,0,0,0,0,0-.02,.04-.06,.07-.11,.11-.13,.04-.04,.08-.08,.12-.12,.05-.04,.09-.06,.13-.08,.11-.05,.23-.06,.35,0,.08,.03,.15,.09,.22,.15,.5,.5,1.01,.96,1.52,1.42,.26,.2,.51,.41,.78,.63,.31,.25,.62,.43,.93,.65,.5,.36,1.02,.66,1.53,.96,.16,.09,.32,.18,.48,.27,1.06,.62,2.12,1.22,3.19,1.78,.68,.34,1.36,.68,2.05,1.01,.25-.32,.34-.93,.02-1.78,3.23,1.3,6.48,1.14,9.72,.97,1.34-.15,2.69-.26,4.02-.59,.5-.14,1.22-.19,1.32-1.45,2.84-.86,5.49-2.97,8.14-4.99,.04-.02,.08-.06,.13-.08,0,.05,0,.12,.02,.17-.05,.09-.09,.2-.14,.31-.13,.29-.16,.77-.06,1.18,.11,.43,.3,.6,.5,.58,.31-.03,.62-.54,.61-1.22,.49-1.03,1.01-1.98,1.56-2.86,.21-.25,.42-.55,.6-.94,1.53-2.28,3.2-4.22,4.68-6.65,.06,.06,.14,.11,.22,.1,3.58-.07,5.26-7.59,6.23-13.86,.02-.11,.04-.22,.06-.32,.01-.04,.02-.07,.03-.11,.27-1.08,.51-2.18,.75-3.28,.75-.99,.81-3.33,1.07-5.09,.37-1.66,.73-3.31,1.04-5.01,.04-.66-.16-1.09-.39-1.19,.18-2.18,.32-4.4,.46-6.59,.16-.83,.24-2.31,.28-4.04,.78-10.34,1.18-21.01-.55-31.47Zm-12.25-36.29c-.89-1.48-1.79-2.92-2.68-4.42-1.57-2.84-3.12-5.75-4.76-8.39,2.64,3.81,5.13,8.09,7.43,12.81Zm-9.73-15.96s-.05,0-.07,.02c-.07-.13-.14-.27-.22-.4,.1,.1,.19,.23,.29,.38Zm-36.63-55.47c-.13-.34-.27-.68-.4-1.03-.25-.54-.32-1.69-.74-1.7-.25-1.74-.45-3.51-.59-5.31,.49,2.72,1.09,5.4,1.73,8.05Zm-.57-37.17c.98-4.67,2.46-8.79,4.31-11.92-1.83,4.21-3.65,9.7-4.31,11.92Zm-7.23-22.72c1.08-1.09,2.19-2.41,3.43-2.62-.28,.26-.54,.62-.78,1.13-.22,.36-.44,.73-.66,1.09-.96,.75-1.96,1.37-2.84,2.41-1.74,1.86-3.3,4.37-4.77,7.03-.03-.14-.07-.24-.12-.34-.06-.12-.13-.2-.2-.24,1.82-3.24,3.84-5.97,5.94-8.45Zm10.66,245.36h0s0,.02,0,.02h-.02s0,0,0-.02Zm.22,.12v-.02s0,0,0,0v.02Zm-4.7-39.79c-.99-2.77-1.95-5.62-2.84-8.54-.06-.28-.13-.53-.18-.81,1.08,2.97,2.05,6.17,3.02,9.35Zm52.27,30.5c.15-.3,.31-.63,.45-.96,.22-.48,.64-1.42,.95-2.43-.02,.32,.04,.68,.17,.92,.09,.11,.17,.18,.25,.2-.5,1.04-1.1,1.85-1.81,2.27Zm8.32-49.53c0,.05-.02,.09-.02,.14-.18-3.54-.39-7.09-.89-10.53,.88-1.83-1.13-11.63-1.46-13.85-1.04-5.56-2.48-10.76-4.02-15.85,2.04,4.94,3.87,10.25,4.97,16.23-.47-.15-.8,1.26-.23,1.96,1.08,7.11,1.86,14.55,1.65,21.89Z"/>
    <path class="cls-1" d="M263.49,217.9c-1.73-1.16-3.68-.63-5.5-.32-2.23,.44-4.47,.22-6.72,.45-.8,.12-1.58-.12-2.37-.37-.64-.21-1.29-.39-1.94-.4-4.13,.15-8.3,.97-12.46,.1-1.59-.38-3.15-.04-4.7,.31-1.41,.3-2.82,.6-4.28,.38-4.29-.89-8.59-1.2-12.94-1.16-3.46-.39-6.99-1.04-10.41,.55-.57,.27-1.17,.32-1.76,.44-.44-.55-.99-.96-1.44-.27-.36,.67-.42,1.85,.07,2.39,.19,.2,.38,.39,.58,.57,0,0-.01,0,0,.02,.13,.26,.3,.48,.46,.6,.21,.35,.47,.46,.69,.41,.49,.42,1,.85,1.48,1.31,.83,3.63,3.12,3.71,5.26,3.98,1.4,1.47,2.75,3.1,4.37,3.84,2.65,.31,4.41,3.32,6.31,5.9,1.31,1.3,2.7,2.26,3.7,4.26-.28,1.33,.26,2.39,.51,3.59,.34,2.19,.35,4.48,.1,6.85-.29,2.75-1.36,5.14-2.24,7.51-1.21,4.84-2.51,9.53-4.01,14.14-1.31,8.01-3.56,15.44-5.14,23.32-1.95,9.04-4.83,17.49-6.93,26.45-1.42,7.08-3.29,14.02-5.03,20.93-2.01,5.19-3.48,10.76-4.86,16.43-2.13,7.07-4.23,14.19-6.24,21.37-.88,4.04-1.14,8.39-2.09,12.37-.75,3.46-1.54,7.07-2.46,10.53-.01-.11-.03-.22-.04-.31-.32-2.44-.95-4.76-1.53-7.08-1.9-6.23-3.8-11.76-5.56-18.27-5.09-15.77-8.4-32.81-12.17-49.46-.94-4.62-1.8-9.31-3.08-13.73-.22-.62-.36-1.57-.85-1.74-.71-3.03-1.23-6.06-1.86-9.14,1.23-.85-.17-3.24-.37-4.63-1.24-4.97-2.27-10.06-3.2-15.19-1.1-6.22-2.46-12.41-3.6-18.63-.68-3.9-1.35-7.85-2.12-11.73,.03-.33-.04-.62-.17-.89-.65-3.23-1.37-6.41-2.26-9.47,.09-.95,.25-1.87,.49-2.75,.75-2.25,2.14-3.83,3.18-5.73,1.75-1.28,3.64-1.83,5.42-2.98,3.21-2.27,5.85-6.15,8.94-8.78,.99-.79,2.15-1.73,3.3-2.12,.87,.3,1.33-1.54,.5-2.11-1.03-.21-2.06-.18-3.09-.06h-.01s-.01-.02-.01-.02c-.07-.22-.22-.42-.47-.53-.6-1.13-1.61-.1-2.31,.31-.03,.02-.08,.05-.11,.07-.19-.44-.62-.48-.98-.41-2.49-.22-5.02-.66-7.53-.75-1.24-.28-2.5-.44-3.78-.29-.62,0-1.23-.01-1.86-.03-3.01-.02-6.01-.07-9.01,.22-1.63,.13-3.43,.3-4.53-2.04-.26-.46-.66-.75-.99-.34-.42,.62-.28,1.56-.24,2.42-2.61-.62-5.22-1.21-7.82-1.34-3.76-.12-7.47,1.05-11.22,1.31-5.95,1.35-12,.43-17.81-1.71-.01-.02-.01-.04-.02-.05-.11-.24-.23-.44-.4-.55-.42-.24-.7-.15-.86,.1-.77-.28-1.75-.07-1.38,1.57-1.06-.08-4.85-2.88-5.02-.24,0,1,.52,1.83,1.14,1.67-.14,.36-.18,.67-.14,.95-.09-.11-.17-.22-.26-.33-.49-.79-1.54-1.27-1.61,.31,0,.53,.24,1.04,.57,1.06,2.05,2.39,4.08,4.81,6.19,7.07-.02-.04-.03-.05-.06-.09,1.45,1.67,2.91,3.43,3.94,5.9,.19,.77,.66,.75,.95,.37,1.87,4.21,3.57,8.61,5.38,12.83,.95,2.27,1.55,5.15,2.79,7.02,.32,.15,.52,.04,.66-.21,.76,2.56,1.53,5.11,2.29,7.67,2.38,9.07,5.55,17.56,7.58,26.9,3.1,15.18,8.03,29.05,12.3,43.41-.37,.45-.23,1.35-.1,1.99,.11,.64,.15,1.55,.64,1.66,3.46,11.12,4.93,23.34,7.03,35.24v.04s.01,.04,.01,.05c1.49,8.68,3.75,17.07,5.91,25.37,1.73,6.96,2.62,14.93,5.17,21.2,1.58,7.83,2.89,15.86,4.89,23.49,.91,3.83,1.77,7.7,2.68,11.54,.1,.42,.37,.71,.64,.64,.9,3.4,1.78,6.83,2.68,10.23-.27,.33-.32,.93-.18,1.4,.79,2.79,1.58,5.61,2.34,8.44-.45,1.31-.8,6.35,.6,5.07-.22,2.37-.53,4.77-1.02,7.04-.02,.2,0,.4,.05,.58-.13,.56-.1,1.11,.24,1.62,.49,.11,.98,.17,1.49,.18,1.29,.01,2.62-.31,3.89-.5,1.18-.14,2.37-.22,3.56-.26,2.02,.87,4.01,2.18,6.15,2.13,1.02,0,2.05-.07,3.09-.14,2.02-.15,4.05-.29,5.99,.2,.24,.2,.5,.22,.71,.06,.23-.02,.43-.2,.54-.52,.34-.18,.65-.52,.74-1.09,.39,.71,.8,1.43,1.34,1.83,.07,.07,.15,.09,.23,.09,.24,0,.48-.27,.57-.65,.28-1.05-.46-1.42-.83-2.03-1.61-2.55-2.86-6.07-3.25-9.76-.26-3.65-.02-7.32,.43-10.95,1.29-6.29,2.68-12.51,4.02-18.77,1.1-6.22,2.17-12.5,3.53-18.61,0,.04-.01,.07-.01,.11,1.32,6.42,3.58-9.94,3.96-11.63,3.81-17.39,8.32-34.35,11.04-52.29,.16-.2,.25-.53,.29-.89,.53-1.65,1.01-3.34,1.32-5.18,.12-.62,.28-1.33,.42-2.06,2.46-12.28,5.65-24.24,8.95-36.04,2.02-6.18,3.39-13.14,5.38-19.45,.7-2.14,1.39-4.32,2.02-6.47,.39-1.11,1.17-4.09-.34-3.52,.22-.82,.44-1.64,.69-2.45,.29-.96,.61-2,.91-3.02,1.42,1.65,2.18-6.34,2.74-7.94,1.42-5.49,2.81-11.09,4.22-16.58,2.42-7.1,4.71-14.35,7.53-21.07,4.01-4.21,8.12-8.13,12.7-10.54,2.03-.82,3.95-3.12,5.97-3.7,.57-.03,1-.7,1.19-1.56,.15-.69,.24-1.51,.19-2.29,.2-.51,.09-1.27-.26-1.55-.01-.04-.03-.09-.04-.13-.09-.16-.21-.29-.35-.39-.44-.28-1.04-.12-1.2,.57-2.24,.18-4.49-.16-6.71-.58,1,.08,2.02-.13,3.04-.34,1.67-.35,3.33-.7,4.89,.28,.14,.09,.28,.18,.42,.3,.29,.37,.72,.24,.91-.3,.36-1.05-.37-1.72-.9-2.01Zm-61.76,1.8s-.02-.02-.02-.04h.02s-.01,.02,0,.04Zm9.89,8.68s-.08-.07-.12-.11c.3,.15,.6,.3,.89,.46-.26-.09-.51-.2-.77-.35Zm-118.27-8.89s-.01,.02-.02,0c-.08-.07-.17-.13-.25-.18,.16,.07,.32,.15,.47,.2-.07,0-.14,0-.2-.02Zm47.75,156.61c-.17,.22-.28,.64-.23,1-.74-3.83-1.48-7.61-2.11-11.53,.85,3.45,1.63,6.94,2.47,10.41-.05,.02-.09,.07-.13,.13Zm4.97-136.32l-.08,.09c.23-.87,.69-1.62,1.18-2.19-.21,.4-.39,.83-.57,1.27-.18,.27-.36,.56-.54,.83Zm31.12,246.99h.41s.08,.02,.12,.02c-.17,0-.35-.02-.53-.02Zm5.54-79.45c-.39-1.1-.75-2.07-.86-2.54,.28,.57,.71,1.54,1.17,1.47-.12,.35-.21,.71-.3,1.07Z"/>
    <polygon class="cls-4" points="117.27 402.39 117.11 401.12 116.63 399.58 115.35 396.03 114.29 392.99 113.2 390.89 111.47 387.8 109.61 385.04 107.19 382.04 104.78 379.27 102.57 376.93 98.92 374.13 92.87 367.57 86.6 360.47 80.56 353.14 75.43 345.4 75.17 345.09 74.95 344.78 74.71 344.42 74.46 344.09 74.3 343.78 74.11 343.47 73.92 343.13 73.68 342.76 73.48 342.45 73.26 342.07 73.07 341.73 72.76 341.23 72.44 340.69 72.22 340.3 71.88 339.81 71.59 339.35 71.28 338.8 70.98 338.21 70.76 337.69 70.54 337.29 70.15 338.08 69.77 338.78 69.46 339.27 69.15 339.7 68.9 340.06 68.59 340.57 68.35 340.9 67.97 341.33 66.13 343.69 64.21 346.44 62.29 349.06 60.51 351.61 58.39 354.36 56.55 356.59 54.78 358.37 52.88 360.4 51.45 362 49.81 363.78 48.32 365.31 46.48 367.08 45.19 368.42 43.7 369.75 42.54 371.15 40.23 373.25 38.87 374.71 37.65 375.79 36.16 376.99 34.6 378.65 33.31 379.85 31.88 381.25 30.46 382.71 29.16 384.44 27.86 385.84 26.9 387.18 26.22 388.07 25.19 389.48 24.31 390.63 23.54 392.1 22.85 393.71 22.28 395.45 21.63 397.12 21.08 398.44 20.42 400.44 19.93 401.89 19.44 403.37 19.42 404.9 19.37 407.09 19.5 408.89 19.46 410.96 19.81 413.22 20.26 414.92 20.81 416.43 21.75 418.15 22.78 419.58 24.2 421.11 25.43 422.82 26.47 424.06 27.99 425.22 29.43 426.19 31.34 427.26 33.26 428.14 34.7 428.83 36.53 429.24 38.54 430.03 40.18 430.34 42.01 430.85 43.85 430.98 45.88 430.83 47.72 430.68 49.66 430.53 51.09 430.55 52.17 430.33 53.21 430.04 54.5 429.89 55.58 429.53 56.69 429.17 57.85 428.77 59.11 428.34 60.33 427.78 61.6 427.14 62.68 426.53 63.77 425.93 64.89 425.36 64.91 425.81 64.93 427.03 64.65 428.31 64.42 429.42 63.82 430.69 63.37 431.83 62.73 433.21 62.2 435.01 61.37 437.18 60.29 439.1 59.21 441.35 58.04 443.35 56.96 445.44 55.44 447.94 53.92 450.19 52.55 452.07 83.77 452.67 85.53 452.71 84.2 451.4 83.19 450.21 82.17 449.05 80.96 447.68 80.02 446.05 79.01 444.38 77.98 442.61 77.21 440.8 76.74 439.94 76.1 438.92 75.8 437.85 75.22 436.57 75.02 435.55 74.66 434.54 74.35 433.31 74.1 432.3 73.85 431.02 73.65 430.11 73.4 429.1 73.37 427.94 73.34 426.79 73.42 425.38 73.8 425.9 74.58 426.26 75.58 426.79 76.71 427.36 77.66 427.81 78.88 428.38 80.32 428.88 81.41 429.28 82.67 429.61 84.02 429.97 85.16 430.21 86.12 430.31 87.34 430.55 88.7 430.66 89.57 430.68 90.41 430.87 91.24 430.89 92.15 430.91 93.26 430.93 93.65 430.94 94.15 430.7 94.98 430.72 95.91 430.56 96.65 430.38 97.35 430.11 97.98 429.85 99.08 429.48 100.52 429.06 101.95 428.7 103.28 428.06 104.21 427.68 105.83 426.71 107.56 425.69 108.78 425.1 109.88 424.29 110.88 423.14 111.92 422.32 112.8 421.45 113.39 420.52 114.5 419.09 115.16 417.94 115.7 416.67 116.18 415.34 116.4 414.16 116.89 412.63 117.07 411.13 117.15 410.31 117.32 409.53 117.36 407.79 117.38 406.4 117.41 404.89 117.44 403.57 117.27 402.39"/>
  </g>
</svg>